<?xml version="1.0" encoding="UTF-8"?>
<svg width="24px" height="24px" viewBox="0 0 24 24" version="1.1" xmlns="http://www.w3.org/2000/svg" xmlns:xlink="http://www.w3.org/1999/xlink">
    <!-- Generator: Sketch 51.1 (57501) - http://www.bohemiancoding.com/sketch -->
    <title>facebook-square-brands</title>
    <desc>Created with Sketch.</desc>
    <defs></defs>
    <g id="1366x768-large-display" stroke="none" stroke-width="1" fill="none" fill-rule="evenodd">
        <g id="other-page" transform="translate(-1318.000000, -72.000000)" fill="#212121" fill-rule="nonzero">
            <g id="header" transform="translate(1318.000000, 24.000000)">
                <g id="facebook-square-brands" transform="translate(0.000000, 48.000000)">
                    <path d="M24,2.57142857 L24,21.4285714 C24,22.8482143 22.8482143,24 21.4285714,24 L16.8589286,24 L16.8589286,14.5071429 L20.1053571,14.5071429 L20.5714286,10.8857143 L16.8589286,10.8857143 L16.8589286,8.57142857 C16.8589286,7.52142857 17.1482143,6.80892857 18.6535714,6.80892857 L20.5714286,6.80892857 L20.5714286,3.57321429 C20.2392857,3.53035714 19.1035714,3.42857143 17.775,3.42857143 C15.0107143,3.42857143 13.1142857,5.11607143 13.1142857,8.21785714 L13.1142857,10.8910714 L9.85714286,10.8910714 L9.85714286,14.5125 L13.1196429,14.5125 L13.1196429,24 L2.57142857,24 C1.15178571,24 0,22.8482143 0,21.4285714 L0,2.57142857 C0,1.15178571 1.15178571,0 2.57142857,0 L21.4285714,0 C22.8482143,0 24,1.15178571 24,2.57142857 Z" id="Shape"></path>
                </g>
            </g>
        </g>
    </g>
</svg>