<svg width="24" height="24" viewBox="0 0 24 24" fill="none" xmlns="http://www.w3.org/2000/svg">
<g id="facebook-square-brands">
<path id="Shape" d="M24 2.57143V21.4286C24 22.8482 22.8482 24 21.4286 24H16.8589V14.5071H20.1054L20.5714 10.8857H16.8589V8.57143C16.8589 7.52143 17.1482 6.80893 18.6536 6.80893H20.5714V3.57321C20.2393 3.53036 19.1036 3.42857 17.775 3.42857C15.0107 3.42857 13.1143 5.11607 13.1143 8.21786V10.8911H9.85714V14.5125H13.1196V24H2.57143C1.15179 24 0 22.8482 0 21.4286V2.57143C0 1.15179 1.15179 0 2.57143 0H21.4286C22.8482 0 24 1.15179 24 2.57143Z" fill="#F5F5F5"/>
</g>
</svg>
