<?xml version="1.0" encoding="UTF-8"?>
<svg width="37px" height="21px" viewBox="0 0 37 21" version="1.1" xmlns="http://www.w3.org/2000/svg" xmlns:xlink="http://www.w3.org/1999/xlink">
    <!-- Generator: Sketch 51.1 (57501) - http://www.bohemiancoding.com/sketch -->
    <title>logo</title>
    <desc>Created with Sketch.</desc>
    <defs></defs>
    <g id="1366x768-large-display" stroke="none" stroke-width="1" fill="none" fill-rule="evenodd">
        <g id="main-page" transform="translate(-1305.000000, -1991.000000)">
            <g id="footer" transform="translate(0.000000, 1984.000000)">
                <g id="logo" transform="translate(1304.000000, 3.000000)">
                    <g id="Group-2">
                        <path d="M1.68287964,12.7611277 L1.68287964,12.3443806 C1.73931173,11.8771715 1.99993896,11.6188164 2.46476135,11.5693152 C2.69267578,11.5693152 3.13292084,11.5693152 3.78549652,11.5693152 L5.21062169,11.5693152 L6.48071321,11.5693152 C6.61397631,11.5670423 6.72362586,11.5670423 6.80966187,11.5693152 C8.82489873,11.6225544 10.4689672,13.1877243 10.4355072,14.7997689 C10.4355072,15.9883169 9.88042908,16.8607049 8.77027283,17.4169328 C10.411104,17.8549558 11.2315196,18.8935955 11.2315196,20.5328516 C11.2315196,23.3060423 8.77027283,24.2921121 6.99007721,24.2921121 C4.48311931,24.2921121 2.96025402,24.2921121 2.42148135,24.2921121 C1.92908021,24.1869844 1.68287964,23.9052527 1.68287964,23.4469171 C1.68287964,20.1372243 1.68287964,18.1881243 1.68287964,17.5996171 L1.68287964,12.7611277 Z M3.42607131,13.11847 L3.42607131,16.8041006 C4.7941391,16.8041006 5.92871622,16.8041006 6.82980267,16.8041006 C7.37179948,16.8041006 8.77136169,16.4529548 8.77136169,14.9612853 C8.77136169,13.4772767 7.40345767,13.11847 6.82980267,13.11847 C5.83422271,13.11847 4.69964559,13.11847 3.42607131,13.11847 Z M3.43249237,18.3653935 L3.43249237,22.7421397 C4.8089437,22.7421397 6.00035973,22.7421397 7.00674045,22.7421397 C7.69892018,22.7421397 9.54668156,22.4153944 9.54668156,20.5537666 C9.54668156,18.4777836 7.63629984,18.3653935 7.00674045,18.3653935 C6.05603431,18.3653935 4.86461829,18.3653935 3.43249237,18.3653935 Z" id="Combined-Shape" fill="#304FFE"></path>
                        <path d="M1.67744293,16.8249823 L1.67744293,15.3412332 L1.67744293,13.5653505 L1.67744293,12.0524648 L1.67744293,10.5420572 L1.67744293,9.04490114 L1.67744293,7.8662675 L1.67744293,6.51526115 L1.67744293,5.71888762 C1.74848546,5.19513588 2.07022003,4.93326001 2.64264666,4.93326001 C3.21507329,4.93326001 3.59560553,4.93326001 3.78424339,4.93326001 L6.49613919,4.93326001 C8.8473144,5.34262761 10.0858469,6.71317465 10.2117367,9.04490114 C10.2117367,9.793191 10.0968468,12.7925254 6.34917872,13.2305021 C5.73126342,13.2305021 4.76068999,13.2305021 3.43745843,13.2305021 L3.43745843,16.8249823 L1.67744293,16.8249823 Z M3.4330723,6.49677194 L3.4330723,11.5725088 C4.44250734,11.5725088 5.37734003,11.5725088 6.2375704,11.5725088 C6.69356945,11.5725088 8.53833804,11.203279 8.53833804,9.09004005 C8.53833804,7.01368066 6.75445632,6.49677194 6.2375704,6.49677194 C5.44137642,6.49677194 4.50654372,6.49677194 3.4330723,6.49677194 Z" id="Combined-Shape" fill="#243BBE"></path>
                    </g>
                    <g id="Group" transform="translate(14.000000, 9.000000)" fill="#FFFFFF">
                        <path d="M2.11755985,0.145458848 C2.29312829,0.227125923 2.43465583,0.340550714 2.54214672,0.485736626 C2.57081095,0.532922047 2.58514286,0.57466237 2.58514286,0.610958848 C2.58514286,0.67266286 2.55647905,0.72166237 2.49915058,0.757958848 C2.47406937,0.776107087 2.4400311,0.78518107 2.39703475,0.78518107 C2.32179113,0.78518107 2.25908905,0.75795912 2.20892664,0.703514403 C2.0333582,0.500254128 1.79329882,0.398625514 1.48874131,0.398625514 C1.29167469,0.398625514 1.13402376,0.439458439 1.01578378,0.521125514 C0.89754381,0.602792589 0.83842471,0.705328601 0.83842471,0.828736626 C0.83842471,0.959403946 0.893960835,1.06375475 1.00503475,1.14179218 C1.11610866,1.21982961 1.31317233,1.28244009 1.59623166,1.32962551 C1.97961582,1.39495917 2.25371346,1.50112478 2.41853282,1.64812551 C2.58335218,1.79512625 2.66576062,1.97751331 2.66576062,2.19529218 C2.66576062,2.36225598 2.6164947,2.51106931 2.51796139,2.64173663 C2.41942808,2.77240395 2.28237926,2.87403256 2.10681081,2.94662551 C1.93124237,3.01921847 1.73238721,3.0555144 1.51023938,3.0555144 C1.28809155,3.0555144 1.0749045,3.01740367 0.870671815,2.94118107 C0.666439133,2.86495847 0.501622249,2.75788546 0.376216216,2.61995885 C0.340385921,2.57640307 0.322471042,2.53466275 0.322471042,2.49473663 C0.322471042,2.43303261 0.351134848,2.37858871 0.40846332,2.33140329 C0.451459674,2.29873646 0.496246871,2.28240329 0.542826255,2.28240329 C0.603737756,2.28240329 0.655690905,2.30781045 0.698687259,2.35862551 C0.784679967,2.46025565 0.898439447,2.53829191 1.03996911,2.59273663 C1.18149878,2.64718134 1.33825397,2.67440329 1.51023938,2.67440329 C1.76105145,2.67440329 1.94915767,2.63084817 2.07456371,2.54373663 C2.19996974,2.45662508 2.2644633,2.34229289 2.26804633,2.20073663 C2.26804633,2.07006931 2.20534426,1.96118151 2.07993822,1.87406996 C1.95453219,1.78695841 1.75567704,1.72162573 1.4833668,1.67806996 C1.1322299,1.61999559 0.869776931,1.51927438 0.696,1.37590329 C0.522223069,1.2325322 0.435335907,1.05921912 0.435335907,0.855958848 C0.435335907,0.59099456 0.536554972,0.385922537 0.738996139,0.240736626 C0.941437306,0.0955507144 1.19493284,0.0229588477 1.49949035,0.0229588477 C1.73597029,0.0229588477 1.9419914,0.0637917727 2.11755985,0.145458848 Z M5.33689575,0.210792181 C5.54112843,0.336015029 5.69967511,0.509328111 5.81254054,0.730736626 C5.92540597,0.95214514 5.98183784,1.20440188 5.98183784,1.4875144 C5.98183784,1.54558877 5.96392296,1.59186608 5.92809266,1.62634774 C5.89226237,1.66082939 5.84568368,1.67806996 5.78835521,1.67806996 L3.61705019,1.67806996 C3.64571443,1.97570108 3.76036965,2.21706903 3.96101931,2.40218107 C4.16166896,2.58729311 4.41247726,2.67984774 4.71345174,2.67984774 C4.8424408,2.67984774 4.97232367,2.65716278 5.10310425,2.61179218 C5.23388482,2.56642158 5.33868686,2.50925549 5.41751351,2.44029218 C5.4640929,2.4039957 5.51246307,2.38584774 5.56262548,2.38584774 C5.60203881,2.38584774 5.64145154,2.40036611 5.68086486,2.42940329 C5.72744425,2.47295907 5.75073359,2.52195858 5.75073359,2.57640329 C5.75073359,2.62358871 5.73102722,2.66532904 5.6916139,2.70162551 C5.57337393,2.80325565 5.42288894,2.8876437 5.24015444,2.95479218 C5.05741994,3.02194066 4.88185412,3.0555144 4.71345174,3.0555144 C4.42680938,3.0555144 4.17062661,2.99108912 3.94489575,2.86223663 C3.71916489,2.73338413 3.54270334,2.55371926 3.41550579,2.32323663 C3.28830824,2.09275399 3.22471042,1.83233067 3.22471042,1.54195885 C3.22471042,1.24795738 3.28472527,0.985719259 3.40475676,0.755236626 C3.52478824,0.524753992 3.69139662,0.345089122 3.90458687,0.216236626 C4.11777713,0.0873841294 4.36052373,0.0229588477 4.63283398,0.0229588477 C4.89797816,0.0229588477 5.13266307,0.0855693327 5.33689575,0.210792181 Z M3.95564479,0.654514403 C3.77649331,0.825107849 3.66721255,1.05014264 3.62779923,1.32962551 L5.59487259,1.32962551 C5.56620835,1.05014264 5.46588503,0.825107849 5.29389961,0.654514403 C5.1219142,0.483920958 4.90156119,0.398625514 4.63283398,0.398625514 C4.36052373,0.398625514 4.13479626,0.483920958 3.95564479,0.654514403 Z M8.67447104,0.218958848 C8.9002019,0.349626168 9.07845494,0.531105834 9.20923552,0.763403292 C9.3400161,0.99570075 9.40540541,1.25521667 9.40540541,1.54195885 C9.40540541,1.82870102 9.34091184,2.08730955 9.21192278,2.31779218 C9.08293372,2.54827481 8.90468067,2.72884708 8.6771583,2.8595144 C8.44963593,2.99018172 8.19434891,3.0555144 7.91128958,3.0555144 C7.62823024,3.0555144 7.37294322,2.99018172 7.14542085,2.8595144 C6.91789848,2.72884708 6.73964543,2.54827481 6.61065637,2.31779218 C6.48166731,2.08730955 6.41717375,1.82870102 6.41717375,1.54195885 C6.41717375,1.25521667 6.48166731,0.99570075 6.61065637,0.763403292 C6.73964543,0.531105834 6.91789848,0.349626168 7.14542085,0.218958848 C7.37294322,0.0882915277 7.62823024,0.0229588477 7.91128958,0.0229588477 C8.19434891,0.0229588477 8.44874018,0.0882915277 8.67447104,0.218958848 Z M7.35502703,0.551069959 C7.18841616,0.649070449 7.05763754,0.784272801 6.96268726,0.95668107 C6.86773698,1.12908934 6.82026255,1.32417998 6.82026255,1.54195885 C6.82026255,1.75610807 6.86773698,1.94938391 6.96268726,2.12179218 C7.05763754,2.29420045 7.18841616,2.4294028 7.35502703,2.52740329 C7.5216379,2.62540378 7.70705689,2.67440329 7.91128958,2.67440329 C8.11910529,2.67440329 8.30542003,2.62540378 8.47023938,2.52740329 C8.63505874,2.4294028 8.76404587,2.29420045 8.85720463,2.12179218 C8.9503634,1.94938391 8.99694208,1.75610807 8.99694208,1.54195885 C8.99694208,1.32417998 8.9503634,1.12908934 8.85720463,0.95668107 C8.76404587,0.784272801 8.63505874,0.649070449 8.47023938,0.551069959 C8.30542003,0.453069469 8.11910529,0.404069959 7.91128958,0.404069959 C7.70705689,0.404069959 7.5216379,0.453069469 7.35502703,0.551069959 Z" id="seo"></path>
                        <path d="M3.31607722,5.29822222 L3.31607722,6.57766667 C3.31607722,6.86077919 3.25068791,7.11848032 3.11990734,7.35077778 C2.98912676,7.58307524 2.80997797,7.7654623 2.5824556,7.89794444 C2.35493323,8.03042659 2.10143769,8.09666667 1.82196139,8.09666667 C1.54248509,8.09666667 1.28898955,8.03042659 1.06146718,7.89794444 C0.833944808,7.7654623 0.654796021,7.58307524 0.524015444,7.35077778 C0.393234867,7.11848032 0.32784556,6.86077919 0.32784556,6.57766667 C0.32784556,6.29455414 0.391443379,6.03776041 0.518640927,5.80727778 C0.645838474,5.57679514 0.819612798,5.39531548 1.03996911,5.26283333 C1.26032543,5.13035119 1.50665501,5.06411111 1.77896525,5.06411111 C2.01186217,5.06411111 2.22504923,5.11401802 2.41853282,5.21383333 C2.61201641,5.31364865 2.77145883,5.4506658 2.89686486,5.62488889 L2.89686486,4.02966667 C2.89686486,3.96796265 2.91657123,3.91714835 2.95598456,3.87722222 C2.99539788,3.8372961 3.04555954,3.81733333 3.10647104,3.81733333 C3.16738254,3.81733333 3.21664846,3.8372961 3.25427027,3.87722222 C3.29189208,3.91714835 3.3107027,3.96796265 3.3107027,4.02966667 L3.3107027,5.24922222 C3.31428573,5.26011117 3.31607722,5.27644434 3.31607722,5.29822222 Z M2.37553668,7.56583333 C2.54035604,7.46601802 2.67023891,7.32990827 2.76518919,7.1575 C2.86013947,6.98509173 2.9076139,6.79181589 2.9076139,6.57766667 C2.9076139,6.51596265 2.90582241,6.47059274 2.90223938,6.44155556 C2.89865635,6.43429626 2.89686486,6.42522228 2.89686486,6.41433333 C2.86103457,6.13122081 2.74369211,5.89892683 2.54483398,5.71744444 C2.34597584,5.53596206 2.10502072,5.44522222 1.82196139,5.44522222 C1.61772871,5.44522222 1.43230971,5.49422173 1.26569884,5.59222222 C1.09908797,5.69022271 0.968309355,5.82542506 0.873359073,5.99783333 C0.778408792,6.1702416 0.730934363,6.36351745 0.730934363,6.57766667 C0.730934363,6.79181589 0.778408792,6.98509173 0.873359073,7.1575 C0.968309355,7.32990827 1.09908797,7.46601802 1.26569884,7.56583333 C1.43230971,7.66564865 1.61772871,7.71555556 1.82196139,7.71555556 C2.02619407,7.71555556 2.21071732,7.66564865 2.37553668,7.56583333 Z M6.23981467,5.25194444 C6.44404735,5.37716729 6.60259403,5.55048037 6.71545946,5.77188889 C6.82832489,5.9932974 6.88475676,6.24555414 6.88475676,6.52866667 C6.88475676,6.58674103 6.86684188,6.63301835 6.83101158,6.6675 C6.79518129,6.70198165 6.7486026,6.71922222 6.69127413,6.71922222 L4.51996911,6.71922222 C4.54863335,7.01685334 4.66328857,7.2582213 4.86393822,7.44333333 C5.06458788,7.62844537 5.31539618,7.721 5.61637066,7.721 C5.74535972,7.721 5.87524259,7.69831504 6.00602317,7.65294444 C6.13680374,7.60757385 6.24160578,7.55040775 6.32043243,7.48144444 C6.36701182,7.44514797 6.41538199,7.427 6.4655444,7.427 C6.50495773,7.427 6.54437046,7.44151837 6.58378378,7.47055556 C6.63036317,7.51411133 6.65365251,7.56311084 6.65365251,7.61755556 C6.65365251,7.66474098 6.63394614,7.7064813 6.59453282,7.74277778 C6.47629285,7.84440792 6.32580786,7.92879596 6.14307336,7.99594444 C5.96033885,8.06309293 5.78477304,8.09666667 5.61637066,8.09666667 C5.3297283,8.09666667 5.07354553,8.03224139 4.84781467,7.90338889 C4.62208381,7.77453639 4.44562226,7.59487152 4.31842471,7.36438889 C4.19122716,7.13390626 4.12762934,6.87348293 4.12762934,6.58311111 C4.12762934,6.28910964 4.18764419,6.02687152 4.30767568,5.79638889 C4.42770716,5.56590625 4.59431554,5.38624138 4.80750579,5.25738889 C5.02069605,5.12853639 5.26344265,5.06411111 5.5357529,5.06411111 C5.80089708,5.06411111 6.03558199,5.1267216 6.23981467,5.25194444 Z M4.85856371,5.69566667 C4.67941223,5.86626011 4.57013147,6.0912949 4.53071815,6.37077778 L6.49779151,6.37077778 C6.46912727,6.0912949 6.36880395,5.86626011 6.19681853,5.69566667 C6.02483312,5.52507322 5.80448011,5.43977778 5.5357529,5.43977778 C5.26344265,5.43977778 5.03771518,5.52507322 4.85856371,5.69566667 Z M9.2172973,5.18661111 C9.39286574,5.26827819 9.53439328,5.38170298 9.64188417,5.52688889 C9.67054841,5.57407431 9.68488031,5.61581463 9.68488031,5.65211111 C9.68488031,5.71381512 9.6562165,5.76281463 9.59888803,5.79911111 C9.57380682,5.81725935 9.53976855,5.82633333 9.4967722,5.82633333 C9.42152858,5.82633333 9.35882651,5.79911138 9.30866409,5.74466667 C9.13309565,5.54140639 8.89303627,5.43977778 8.58847876,5.43977778 C8.39141214,5.43977778 8.23376121,5.4806107 8.11552124,5.56227778 C7.99728126,5.64394485 7.93816216,5.74648086 7.93816216,5.86988889 C7.93816216,6.00055621 7.99369829,6.10490702 8.1047722,6.18294444 C8.21584612,6.26098187 8.41290978,6.32359236 8.69596911,6.37077778 C9.07935327,6.43611144 9.35345091,6.54227704 9.51827027,6.68927778 C9.68308963,6.83627851 9.76549807,7.01866558 9.76549807,7.23644444 C9.76549807,7.40340824 9.71623215,7.55222157 9.61769884,7.68288889 C9.51916553,7.81355621 9.38211671,7.91518482 9.20654826,7.98777778 C9.03097982,8.06037073 8.83212466,8.09666667 8.60997683,8.09666667 C8.38782901,8.09666667 8.17464195,8.05855594 7.97040927,7.98233333 C7.76617659,7.90611073 7.6013597,7.79903773 7.47595367,7.66111111 C7.44012337,7.61755534 7.42220849,7.57581501 7.42220849,7.53588889 C7.42220849,7.47418488 7.4508723,7.41974098 7.50820077,7.37255556 C7.55119713,7.33988873 7.59598432,7.32355556 7.64256371,7.32355556 C7.70347521,7.32355556 7.75542836,7.34896271 7.79842471,7.39977778 C7.88441742,7.50140792 7.9981769,7.57944417 8.13970656,7.63388889 C8.28123623,7.68833361 8.43799142,7.71555556 8.60997683,7.71555556 C8.8607889,7.71555556 9.04889513,7.67200044 9.17430116,7.58488889 C9.29970719,7.49777734 9.36420075,7.38344515 9.36778378,7.24188889 C9.36778378,7.11122157 9.30508171,7.00233377 9.17967568,6.91522222 C9.05426964,6.82811068 8.85541449,6.762778 8.58310425,6.71922222 C8.23196736,6.66114786 7.96951438,6.56042664 7.79573745,6.41705556 C7.62196052,6.27368447 7.53507336,6.10037139 7.53507336,5.89711111 C7.53507336,5.63214682 7.63629242,5.4270748 7.83873359,5.28188889 C8.04117476,5.13670298 8.29467029,5.06411111 8.5992278,5.06411111 C8.83570775,5.06411111 9.04172885,5.10494404 9.2172973,5.18661111 Z M10.6254208,5.15122222 C10.6648342,5.1112961 10.7149958,5.09133333 10.7759073,5.09133333 C10.8368188,5.09133333 10.8860848,5.1112961 10.9237066,5.15122222 C10.9613284,5.19114835 10.980139,5.24196265 10.980139,5.30366667 L10.980139,7.85711111 C10.980139,7.91881512 10.9613284,7.96962943 10.9237066,8.00955556 C10.8860848,8.04948168 10.8368188,8.06944444 10.7759073,8.06944444 C10.7149958,8.06944444 10.6648342,8.04948168 10.6254208,8.00955556 C10.5860075,7.96962943 10.5663012,7.91881512 10.5663012,7.85711111 L10.5663012,5.30366667 C10.5663012,5.24196265 10.5860075,5.19114835 10.6254208,5.15122222 Z M10.980139,4.01333333 C11.0374675,4.06777805 11.0661313,4.13855512 11.0661313,4.22566667 C11.0661313,4.30914857 11.0374675,4.37992564 10.980139,4.438 C10.9228105,4.49607436 10.8529425,4.52511111 10.7705328,4.52511111 C10.6881231,4.52511111 10.6191509,4.49607436 10.5636139,4.438 C10.5080769,4.37992564 10.4803089,4.30914857 10.4803089,4.22566667 C10.4803089,4.13855512 10.5089727,4.06777805 10.5663012,4.01333333 C10.6236296,3.95888862 10.6934977,3.93166667 10.7759073,3.93166667 C10.854734,3.93166667 10.9228105,3.95888862 10.980139,4.01333333 Z M14.1403552,5.25738889 C14.3660861,5.38624138 14.5434434,5.56590625 14.6724324,5.79638889 C14.8014215,6.02687152 14.8659151,6.28910964 14.8659151,6.58311111 L14.8659151,7.69377778 C14.8659151,7.9841496 14.8023172,8.24729512 14.6751197,8.48322222 C14.5479221,8.71914933 14.3714606,8.90516599 14.1457297,9.04127778 C13.9199989,9.17738957 13.6656076,9.24544444 13.3825483,9.24544444 C13.106655,9.24544444 12.8612212,9.19281534 12.6462394,9.08755556 C12.4312576,8.98229577 12.2503173,8.83529724 12.1034131,8.64655556 C12.0711659,8.61025908 12.0550425,8.56851875 12.0550425,8.52133333 C12.0550425,8.46688862 12.0801233,8.4197039 12.1302857,8.37977778 C12.166116,8.35437024 12.2055287,8.34166667 12.2485251,8.34166667 C12.2807724,8.34166667 12.3130191,8.34983325 12.3452664,8.36616667 C12.3775137,8.38250008 12.4025945,8.40337024 12.4205097,8.42877778 C12.5280005,8.56670439 12.6641536,8.6737774 12.828973,8.75 C12.9937923,8.8262226 13.1801071,8.86433333 13.3879228,8.86433333 C13.5885724,8.86433333 13.7704085,8.81442643 13.9334363,8.71461111 C14.0964641,8.6147958 14.2245555,8.47505645 14.3177143,8.29538889 C14.4108731,8.11572132 14.4574517,7.9097419 14.4574517,7.67744444 L14.4574517,7.43244444 C14.3499609,7.63933437 14.1976844,7.80175867 14.0006178,7.91972222 C13.8035511,8.03768578 13.5796152,8.09666667 13.3288031,8.09666667 C13.0493268,8.09666667 12.7994142,8.03224139 12.5790579,7.90338889 C12.3587016,7.77453639 12.1867188,7.59487152 12.0631042,7.36438889 C11.9394897,7.13390626 11.8776834,6.87348293 11.8776834,6.58311111 C11.8776834,6.28910964 11.942177,6.02687152 12.071166,5.79638889 C12.2001551,5.56590625 12.3784081,5.38624138 12.6059305,5.25738889 C12.8334529,5.12853639 13.0887399,5.06411111 13.3717992,5.06411111 C13.6584416,5.06411111 13.9146244,5.12853639 14.1403552,5.25738889 Z M13.930749,7.57127778 C14.0955684,7.47509211 14.2245555,7.34079716 14.3177143,7.16838889 C14.4108731,6.99598062 14.4574517,6.80088998 14.4574517,6.58311111 C14.4574517,6.36533224 14.4108731,6.1702416 14.3177143,5.99783333 C14.2245555,5.82542506 14.0955684,5.69022271 13.930749,5.59222222 C13.7659297,5.49422173 13.5796149,5.44522222 13.3717992,5.44522222 C13.1604005,5.44522222 12.9722943,5.49422173 12.8074749,5.59222222 C12.6426555,5.69022271 12.5136684,5.82542506 12.4205097,5.99783333 C12.3273509,6.1702416 12.2807722,6.36533224 12.2807722,6.58311111 C12.2807722,6.80088998 12.3273509,6.99598062 12.4205097,7.16838889 C12.5136684,7.34079716 12.6426555,7.47509211 12.8074749,7.57127778 C12.9722943,7.66746344 13.1604005,7.71555556 13.3717992,7.71555556 C13.5796149,7.71555556 13.7659297,7.66746344 13.930749,7.57127778 Z M17.7493436,5.222 C17.9517848,5.33088943 18.1103315,5.48968414 18.2249884,5.69838889 C18.3396454,5.90709364 18.396973,6.15662818 18.396973,6.447 L18.396973,7.86255556 C18.396973,7.92062992 18.3772666,7.96962943 18.3378533,8.00955556 C18.29844,8.04948168 18.2500698,8.06944444 18.1927413,8.06944444 C18.1318298,8.06944444 18.0816682,8.04948168 18.0422548,8.00955556 C18.0028415,7.96962943 17.9831351,7.92062992 17.9831351,7.86255556 L17.9831351,6.447 C17.9831351,6.12396135 17.8944565,5.8780564 17.7170965,5.70927778 C17.5397366,5.54049916 17.3077389,5.45611111 17.0210965,5.45611111 C16.8455281,5.45611111 16.6869814,5.49059225 16.5454517,5.55955556 C16.4039221,5.62851886 16.2919541,5.72379569 16.2095444,5.84538889 C16.1271347,5.96698209 16.0859305,6.10218444 16.0859305,6.251 L16.0859305,7.86255556 C16.0859305,7.92425957 16.0671199,7.97416648 16.0294981,8.01227778 C15.9918763,8.05038908 15.9426103,8.06944444 15.8816988,8.06944444 C15.8207873,8.06944444 15.7706257,8.05038908 15.7312124,8.01227778 C15.691799,7.97416648 15.6720927,7.92425957 15.6720927,7.86255556 L15.6720927,5.30366667 C15.6720927,5.24196265 15.691799,5.19114835 15.7312124,5.15122222 C15.7706257,5.1112961 15.8207873,5.09133333 15.8816988,5.09133333 C15.9426103,5.09133333 15.9918763,5.1112961 16.0294981,5.15122222 C16.0671199,5.19114835 16.0859305,5.24196265 16.0859305,5.30366667 L16.0859305,5.48877778 C16.2041705,5.35448081 16.3474895,5.2492226 16.5158919,5.173 C16.6842943,5.0967774 16.867026,5.05866667 17.0640927,5.05866667 C17.3184878,5.05866667 17.5469025,5.11311057 17.7493436,5.222 Z" id="design"></path>
                        <path d="M1.24420077,9.47915226 C1.12416928,9.63885677 1.06415444,9.85118798 1.06415444,10.1161523 L1.06415444,10.2413745 L1.70909653,10.2413745 C1.766425,10.2413745 1.81210794,10.2586151 1.84614672,10.2930967 C1.8801855,10.3275784 1.89720463,10.3720409 1.89720463,10.4264856 C1.89720463,10.4773007 1.8801855,10.5199484 1.84614672,10.55443 C1.81210794,10.5889117 1.766425,10.6061523 1.70909653,10.6061523 L1.06415444,10.6061523 L1.06415444,12.8982634 C1.06415444,12.963597 1.04534382,13.0153187 1.00772201,13.05343 C0.970100198,13.0915413 0.917251306,13.1105967 0.849173745,13.1105967 C0.791845273,13.1105967 0.744370844,13.0915413 0.706749035,13.05343 C0.669127225,13.0153187 0.650316602,12.963597 0.650316602,12.8982634 L0.650316602,10.6061523 L0.30634749,10.6061523 C0.249019018,10.6061523 0.203336078,10.5889117 0.169297297,10.55443 C0.135258517,10.5199484 0.118239382,10.4773007 0.118239382,10.4264856 C0.118239382,10.3720409 0.135258517,10.3275784 0.169297297,10.2930967 C0.203336078,10.2586151 0.249019018,10.2413745 0.30634749,10.2413745 L0.650316602,10.2413745 L0.650316602,10.13793 C0.650316602,9.74955773 0.748848436,9.4392275 0.945915058,9.20693004 C1.14298168,8.97463258 1.4206623,8.8584856 1.77896525,8.8584856 C1.83987675,8.8584856 1.89003841,8.87663356 1.92945174,8.91293004 C1.96886506,8.94922652 1.98857143,8.99459644 1.98857143,9.04904115 C1.98857143,9.10348587 1.96886506,9.14885579 1.92945174,9.18515226 C1.89003841,9.22144874 1.83987675,9.23959671 1.77896525,9.23959671 C1.5424853,9.23959671 1.36423226,9.31944776 1.24420077,9.47915226 Z M4.13569112,10.1597078 C4.22347534,10.1996339 4.2673668,10.2558926 4.2673668,10.3284856 C4.2673668,10.3502635 4.26557531,10.3665967 4.26199228,10.3774856 C4.24766016,10.4283007 4.22526656,10.4627818 4.19481081,10.48093 C4.16435506,10.4990783 4.12225509,10.5081523 4.06850965,10.5081523 C4.03626239,10.5081523 3.98072626,10.5045227 3.90189961,10.4972634 C3.87323538,10.4936337 3.83023967,10.4918189 3.7729112,10.4918189 C3.50418398,10.4918189 3.28472672,10.5644108 3.11453282,10.7095967 C2.94433892,10.8547826 2.85924324,11.0435215 2.85924324,11.2758189 L2.85924324,12.9037078 C2.85924324,12.9690415 2.84132836,13.0198558 2.80549807,13.0561523 C2.76966777,13.0924487 2.71950611,13.1105967 2.65501158,13.1105967 C2.59051705,13.1105967 2.54035539,13.0924487 2.5045251,13.0561523 C2.4686948,13.0198558 2.45077992,12.9690415 2.45077992,12.9037078 L2.45077992,10.3393745 C2.45077992,10.2740408 2.4686948,10.2232265 2.5045251,10.18693 C2.54035539,10.1506336 2.59051705,10.1324856 2.65501158,10.1324856 C2.71950611,10.1324856 2.76966777,10.1506336 2.80549807,10.18693 C2.84132836,10.2232265 2.85924324,10.2740408 2.85924324,10.3393745 L2.85924324,10.57893 C2.9631511,10.4264848 3.0957212,10.3085231 3.25695753,10.2250412 C3.41819386,10.1415593 3.59196818,10.0998189 3.77828571,10.0998189 C3.92877295,10.0998189 4.0479069,10.1197817 4.13569112,10.1597078 Z M6.79876448,10.3012634 C7.02449534,10.4319307 7.20274838,10.6134104 7.33352896,10.8457078 C7.46430953,11.0780053 7.52969884,11.3375212 7.52969884,11.6242634 C7.52969884,11.9110055 7.46520528,12.1696141 7.33621622,12.4000967 C7.20722715,12.6305793 7.02897411,12.8111516 6.80145174,12.9418189 C6.57392936,13.0724863 6.31864234,13.1378189 6.03558301,13.1378189 C5.75252368,13.1378189 5.49723666,13.0724863 5.26971429,12.9418189 C5.04219191,12.8111516 4.86393887,12.6305793 4.73494981,12.4000967 C4.60596075,12.1696141 4.54146718,11.9110055 4.54146718,11.6242634 C4.54146718,11.3375212 4.60596075,11.0780053 4.73494981,10.8457078 C4.86393887,10.6134104 5.04219191,10.4319307 5.26971429,10.3012634 C5.49723666,10.1705961 5.75252368,10.1052634 6.03558301,10.1052634 C6.31864234,10.1052634 6.57303362,10.1705961 6.79876448,10.3012634 Z M5.47932046,10.6333745 C5.31270959,10.731375 5.18193098,10.8665773 5.08698069,11.0389856 C4.99203041,11.2113939 4.94455598,11.4064845 4.94455598,11.6242634 C4.94455598,11.8384126 4.99203041,12.0316884 5.08698069,12.2040967 C5.18193098,12.376505 5.31270959,12.5117073 5.47932046,12.6097078 C5.64593133,12.7077083 5.83135033,12.7567078 6.03558301,12.7567078 C6.24339872,12.7567078 6.42971346,12.7077083 6.59453282,12.6097078 C6.75935218,12.5117073 6.8883393,12.376505 6.98149807,12.2040967 C7.07465684,12.0316884 7.12123552,11.8384126 7.12123552,11.6242634 C7.12123552,11.4064845 7.07465684,11.2113939 6.98149807,11.0389856 C6.8883393,10.8665773 6.75935218,10.731375 6.59453282,10.6333745 C6.42971346,10.535374 6.24339872,10.4863745 6.03558301,10.4863745 C5.83135033,10.4863745 5.64593133,10.535374 5.47932046,10.6333745 Z M10.4131274,10.2631523 C10.6155686,10.3720417 10.7741153,10.5308364 10.8887722,10.7395412 C11.0034291,10.9482459 11.0607568,11.1977804 11.0607568,11.4881523 L11.0607568,12.9037078 C11.0607568,12.9617822 11.0410504,13.0107817 11.0016371,13.0507078 C10.9622237,13.0906339 10.9138536,13.1105967 10.8565251,13.1105967 C10.7956136,13.1105967 10.7454519,13.0906339 10.7060386,13.0507078 C10.6666253,13.0107817 10.6469189,12.9617822 10.6469189,12.9037078 L10.6469189,11.4881523 C10.6469189,11.1651136 10.5582403,10.9192087 10.3808803,10.75043 C10.2035203,10.5816514 9.97152267,10.4972634 9.68488031,10.4972634 C9.50931186,10.4972634 9.35076519,10.5317445 9.20923552,10.6007078 C9.06770586,10.6696711 8.95573786,10.764948 8.87332819,10.8865412 C8.79091851,11.0081344 8.74971429,11.1433367 8.74971429,11.2921523 L8.74971429,12.9037078 C8.74971429,12.9654118 8.73090366,13.0153187 8.69328185,13.05343 C8.65566004,13.0915413 8.60639413,13.1105967 8.54548263,13.1105967 C8.48457112,13.1105967 8.43440946,13.0915413 8.39499614,13.05343 C8.35558281,13.0153187 8.33587645,12.9654118 8.33587645,12.9037078 L8.33587645,10.3448189 C8.33587645,10.2831149 8.35558281,10.2323006 8.39499614,10.1923745 C8.43440946,10.1524484 8.48457112,10.1324856 8.54548263,10.1324856 C8.60639413,10.1324856 8.65566004,10.1524484 8.69328185,10.1923745 C8.73090366,10.2323006 8.74971429,10.2831149 8.74971429,10.3448189 L8.74971429,10.52993 C8.86795426,10.3956331 9.01127329,10.2903749 9.17967568,10.2141523 C9.34807806,10.1379297 9.53080983,10.0998189 9.72787645,10.0998189 C9.98227154,10.0998189 10.2106862,10.1542628 10.4131274,10.2631523 Z M13.4094208,12.7512634 C13.4452511,12.7911895 13.463166,12.8420038 13.463166,12.9037078 C13.463166,12.9617822 13.4416682,13.0107817 13.3986718,13.0507078 C13.3556755,13.0906339 13.3019308,13.1105967 13.2374363,13.1105967 L13.1245714,13.1105967 C12.9346709,13.1105967 12.7644795,13.0643194 12.6139923,12.9717634 C12.463505,12.8792074 12.3461626,12.7539864 12.2619614,12.5960967 C12.1777602,12.438207 12.1356602,12.2594496 12.1356602,12.0598189 L12.1356602,10.6061523 L11.7863166,10.6061523 C11.7289881,10.6061523 11.6833052,10.5889117 11.6492664,10.55443 C11.6152276,10.5199484 11.5982085,10.4773007 11.5982085,10.4264856 C11.5982085,10.3720409 11.6152276,10.3275784 11.6492664,10.2930967 C11.6833052,10.2586151 11.7289881,10.2413745 11.7863166,10.2413745 L12.1356602,10.2413745 L12.1356602,9.3974856 C12.1356602,9.33578158 12.1544709,9.28496728 12.1920927,9.24504115 C12.2297145,9.20511503 12.2789804,9.18515226 12.3398919,9.18515226 C12.4008034,9.18515226 12.4509651,9.20511503 12.4903784,9.24504115 C12.5297917,9.28496728 12.5494981,9.33578158 12.5494981,9.3974856 L12.5494981,10.2413745 L13.1568185,10.2413745 C13.214147,10.2413745 13.2598299,10.2586151 13.2938687,10.2930967 C13.3279075,10.3275784 13.3449266,10.3720409 13.3449266,10.4264856 C13.3449266,10.4773007 13.3279075,10.5199484 13.2938687,10.55443 C13.2598299,10.5889117 13.214147,10.6061523 13.1568185,10.6061523 L12.5494981,10.6061523 L12.5494981,12.0598189 C12.5494981,12.244931 12.6032427,12.3964665 12.7107336,12.51443 C12.8182245,12.6323936 12.956169,12.6913745 13.1245714,12.6913745 L13.2696834,12.6913745 C13.3270119,12.6913745 13.3735906,12.7113372 13.4094208,12.7512634 Z M16.091305,10.2930967 C16.2955377,10.4183196 16.4540844,10.5916326 16.5669498,10.8130412 C16.6798152,11.0344497 16.7362471,11.2867064 16.7362471,11.5698189 C16.7362471,11.6278933 16.7183322,11.6741706 16.6825019,11.7086523 C16.6466716,11.7431339 16.600093,11.7603745 16.5427645,11.7603745 L14.3714595,11.7603745 C14.4001237,12.0580056 14.5147789,12.2993736 14.7154286,12.4844856 C14.9160782,12.6695976 15.1668865,12.7621523 15.467861,12.7621523 C15.5968501,12.7621523 15.7267329,12.7394673 15.8575135,12.6940967 C15.9882941,12.6487261 16.0930961,12.59156 16.1719228,12.5225967 C16.2185022,12.4863002 16.2668723,12.4681523 16.3170347,12.4681523 C16.3564481,12.4681523 16.3958608,12.4826706 16.4352741,12.5117078 C16.4818535,12.5552636 16.5051429,12.6042631 16.5051429,12.6587078 C16.5051429,12.7058932 16.4854365,12.7476336 16.4460232,12.78393 C16.3277832,12.8855602 16.1772982,12.9699482 15.9945637,13.0370967 C15.8118292,13.1042452 15.6362634,13.1378189 15.467861,13.1378189 C15.1812186,13.1378189 14.9250359,13.0733936 14.699305,12.9445412 C14.4735742,12.8156887 14.2971126,12.6360238 14.1699151,12.4055412 C14.0427175,12.1750585 13.9791197,11.9146352 13.9791197,11.6242634 C13.9791197,11.3302619 14.0391345,11.0680238 14.159166,10.8375412 C14.2791975,10.6070585 14.4458059,10.4273936 14.6589961,10.2985412 C14.8721864,10.1696887 15.114933,10.1052634 15.3872432,10.1052634 C15.6523874,10.1052634 15.8870723,10.1678739 16.091305,10.2930967 Z M14.7100541,10.7368189 C14.5309026,10.9074124 14.4216218,11.1324472 14.3822085,11.41193 L16.3492819,11.41193 C16.3206176,11.1324472 16.2202943,10.9074124 16.0483089,10.7368189 C15.8763235,10.5662255 15.6559705,10.48093 15.3872432,10.48093 C15.114933,10.48093 14.8892055,10.5662255 14.7100541,10.7368189 Z M19.5121853,10.2631523 C19.7146265,10.3720417 19.8731732,10.5308364 19.9878301,10.7395412 C20.1024871,10.9482459 20.1598147,11.1977804 20.1598147,11.4881523 L20.1598147,12.9037078 C20.1598147,12.9617822 20.1401083,13.0107817 20.100695,13.0507078 C20.0612817,13.0906339 20.0129115,13.1105967 19.955583,13.1105967 C19.8946715,13.1105967 19.8445098,13.0906339 19.8050965,13.0507078 C19.7656832,13.0107817 19.7459768,12.9617822 19.7459768,12.9037078 L19.7459768,11.4881523 C19.7459768,11.1651136 19.6572982,10.9192087 19.4799382,10.75043 C19.3025783,10.5816514 19.0705806,10.4972634 18.7839382,10.4972634 C18.6083698,10.4972634 18.4498231,10.5317445 18.3082934,10.6007078 C18.1667638,10.6696711 18.0547958,10.764948 17.9723861,10.8865412 C17.8899764,11.0081344 17.8487722,11.1433367 17.8487722,11.2921523 L17.8487722,12.9037078 C17.8487722,12.9654118 17.8299616,13.0153187 17.7923398,13.05343 C17.754718,13.0915413 17.705452,13.1105967 17.6445405,13.1105967 C17.583629,13.1105967 17.5334674,13.0915413 17.4940541,13.05343 C17.4546407,13.0153187 17.4349344,12.9654118 17.4349344,12.9037078 L17.4349344,10.3448189 C17.4349344,10.2831149 17.4546407,10.2323006 17.4940541,10.1923745 C17.5334674,10.1524484 17.583629,10.1324856 17.6445405,10.1324856 C17.705452,10.1324856 17.754718,10.1524484 17.7923398,10.1923745 C17.8299616,10.2323006 17.8487722,10.2831149 17.8487722,10.3448189 L17.8487722,10.52993 C17.9670122,10.3956331 18.1103312,10.2903749 18.2787336,10.2141523 C18.447136,10.1379297 18.6298677,10.0998189 18.8269344,10.0998189 C19.0813295,10.0998189 19.3097442,10.1542628 19.5121853,10.2631523 Z M23.9058533,10.3393745 L23.9058533,11.6188189 C23.9058533,11.9019315 23.840464,12.1596326 23.7096834,12.39193 C23.5789028,12.6242275 23.399754,12.8066146 23.1722317,12.9390967 C22.9447093,13.0715789 22.6912138,13.1378189 22.4117375,13.1378189 C22.1322612,13.1378189 21.8787656,13.0715789 21.6512432,12.9390967 C21.4237209,12.8066146 21.2445721,12.6242275 21.1137915,12.39193 C20.9830109,12.1596326 20.9176216,11.9019315 20.9176216,11.6188189 C20.9176216,11.3357064 20.9812194,11.0789127 21.108417,10.84843 C21.2356145,10.6179474 21.4093889,10.4364677 21.6297452,10.3039856 C21.8501015,10.1715035 22.0964311,10.1052634 22.3687413,10.1052634 C22.6016382,10.1052634 22.8148253,10.1551703 23.0083089,10.2549856 C23.2017925,10.3548009 23.3612349,10.4918181 23.4866409,10.6660412 L23.4866409,9.07081893 C23.4866409,9.00911492 23.5063473,8.95830061 23.5457606,8.91837449 C23.5851739,8.87844836 23.6353356,8.8584856 23.6962471,8.8584856 C23.7571586,8.8584856 23.8064245,8.87844836 23.8440463,8.91837449 C23.8816681,8.95830061 23.9004788,9.00911492 23.9004788,9.07081893 L23.9004788,10.2903745 C23.9040618,10.3012634 23.9058533,10.3175966 23.9058533,10.3393745 Z M22.9653127,12.6069856 C23.1301321,12.5071703 23.260015,12.3710605 23.3549653,12.1986523 C23.4499155,12.026244 23.49739,11.8329681 23.49739,11.6188189 C23.49739,11.5571149 23.4955985,11.511745 23.4920154,11.4827078 C23.4884324,11.4754485 23.4866409,11.4663745 23.4866409,11.4554856 C23.4508106,11.1723731 23.3334682,10.9400791 23.13461,10.7585967 C22.9357519,10.5771143 22.6947968,10.4863745 22.4117375,10.4863745 C22.2075048,10.4863745 22.0220858,10.535374 21.8554749,10.6333745 C21.688864,10.731375 21.5580854,10.8665773 21.4631351,11.0389856 C21.3681849,11.2113939 21.3207104,11.4046697 21.3207104,11.6188189 C21.3207104,11.8329681 21.3681849,12.026244 21.4631351,12.1986523 C21.5580854,12.3710605 21.688864,12.5071703 21.8554749,12.6069856 C22.0220858,12.7068009 22.2075048,12.7567078 22.4117375,12.7567078 C22.6159701,12.7567078 22.8004934,12.7068009 22.9653127,12.6069856 Z" id="frontend"></path>
                    </g>
                </g>
            </g>
        </g>
    </g>
</svg>