<svg width="24" height="45" viewBox="0 0 24 45" fill="none" xmlns="http://www.w3.org/2000/svg">
<path fill-rule="evenodd" clip-rule="evenodd" d="M14.437 1.60706L6.48535 1.40704V0L5.01978 0C4.68237 0 4.22998 0.431 3.86304 1.09146C3.49756 1.09146 2.94067 1.06757 2.73535 1.09146C2.53003 1.11539 2.53003 1.09146 2.39722 1.26224C2.2644 1.43304 2.3374 1.83316 2.39722 2.03647C2.45728 2.23981 2.44849 2.31189 2.73535 2.40897C3.02222 2.50604 3.49756 2.40897 3.49756 2.40897L3.07422 3.15561L2.73535 3.78674V4.70575C3.49756 6.81073 5.72388 7.25793 5.72388 7.25793C5.72388 7.25793 6.88232 7.4762 7.43457 7.34213C8.9165 7.06219 9.73047 5.71649 9.73047 5.71649C9.73047 5.71649 9.76587 5.70416 9.80859 5.69931C9.8457 5.6951 9.88867 5.6965 9.91919 5.71649C10.6895 7.74194 12.8979 7.74194 13.043 7.74194C15.2073 7.74194 15.3726 7.06842 15.4534 6.74048L15.4541 6.73825C15.4641 6.6973 15.4727 6.6618 15.4839 6.63385C15.3389 4.03259 13.8855 2.95383 13.8855 2.95383H14.437C14.437 2.95383 14.7432 2.65796 14.7432 2.30261C14.7432 1.94727 14.437 1.60706 14.437 1.60706ZM13.1631 5.99289C13.1631 5.99289 12.186 6.08838 11.4302 5.03705C11.3904 4.98169 11.3481 4.92569 11.3047 4.86807C10.9851 4.44342 10.5991 3.93036 10.5991 2.92651C11.52 3.01529 12.1165 3.71683 12.4014 4.05209L12.4629 4.12399C13.0613 4.81213 13.3301 5.73065 13.1631 5.99289ZM5.52002 2.92966C5.64185 2.80585 8.31885 2.80585 8.44092 2.92966C8.56787 3.05853 8.56567 3.50543 8.56299 4.09921L8.56201 4.38126C8.56201 4.888 8.47363 5.68643 7.8208 5.68643C7.42285 5.76556 6.85303 5.68643 6.85303 5.68643C6.85303 5.68643 5.6709 5.53293 5.23218 4.96649C5.16089 4.44629 5.13037 3.66293 5.23218 3.41342L5.26953 3.32001C5.33765 3.14844 5.35986 3.09216 5.52002 2.92966Z" fill="#F5F5F5"/>
<path d="M14.9287 8.40524C14.9287 8.40524 14.3023 8.37416 13.7008 8.40524C13.4402 8.41871 13.5479 8.39401 13.2848 8.39401C12.4783 8.39401 12.0018 8.40524 11.1156 8.40524C10.8732 8.40524 10.8116 8.24061 10.4198 8.2183C8.63697 8.11681 6.76637 8.07321 6.76637 8.07321L5.86584 7.92699C5.86584 7.92699 5.45697 7.80298 5.38559 7.79676C4.54737 7.72367 3.73964 7.72367 3.40938 7.79676C2.85087 8.07321 2.3226 8.38254 2.3226 8.94377C2.3226 9.88929 3.96039 11.4658 3.96039 11.4658H3.50257L3.15396 11.5427L3.08771 11.6625C3.08771 11.6625 2.81287 12.4413 3.08771 13.1515C3.24921 13.5687 3.73964 13.9068 3.73964 13.9068C3.73964 13.9068 4.64538 14.1141 4.46878 12.8225C5.29727 12.8225 5.31667 12.7581 6.13697 12.8225C7.49935 12.9296 7.58544 12.9459 9.04222 13.0416C10.7561 13.1542 12.4783 13.239 12.4783 13.239L13.2848 13.414H15.1741C15.1741 13.414 15.4839 13.239 15.4839 12.5277C15.4839 11.8164 15.2404 11.5427 15.2404 11.5427H12.5669L11.8486 11.4658C11.8486 11.4658 10.4189 11.542 9.23069 11.4658C9.05455 11.4545 8.58548 11.3459 8.13661 11.2908C7.87294 11.2584 7.90997 11.2062 7.69477 11.1157C7.5454 11.0529 7.51863 11.0609 7.40747 10.9841C7.26461 10.8855 6.99386 10.7995 6.89939 10.7651C6.78368 10.7229 6.32475 10.5466 6.32475 10.5466C6.32475 10.5466 6.27109 10.4434 6.32475 10.3604C6.35957 10.3065 6.37742 10.2729 6.50169 10.2729C7.69759 10.2729 8.07512 10.3604 8.9651 10.3604C9.19068 10.3604 9.78291 10.358 10.1032 10.4808C10.2746 10.5466 10.3935 10.6117 10.5119 10.6117C10.6303 10.6117 12.5669 10.6117 12.5669 10.6117L13.1412 10.5466L13.7008 10.4808L14.2129 10.3604L14.5775 10.1636C14.5775 10.1636 14.7007 10.0445 14.7875 9.91165C14.8166 9.86726 15.0098 10.0047 15.0193 9.91165C15.1192 8.94377 14.9287 8.40524 14.9287 8.40524Z" fill="#F5F5F5"/>
<path fill-rule="evenodd" clip-rule="evenodd" d="M14.9023 14.256H15.3416C15.3416 14.256 15.553 15.6024 15.4502 16.7372C15.3474 17.8722 14.9023 18.9926 13.8618 19.0882C13.759 19.1975 13.355 19.2094 13.1262 19.2094C10.2053 18.844 9.21924 17.4191 9.21924 17.4191H9.03491L7.24927 18.9926C7.24927 18.9926 6.91138 18.9908 6.70435 19.0882C5.94849 19.3087 5.63208 19.5868 5.40552 19.7858C5.3147 19.8657 5.23828 19.9328 5.15381 19.9783C5.12256 19.9877 5.08545 20.0023 5.0437 20.0189C4.71167 20.1504 4.07642 20.4021 3.55713 19.0882C3.48633 17.8167 6.36499 16.4207 6.36499 16.4207H7.5166C7.5166 16.4207 8.12402 16.4716 8.1897 16.4207C8.41113 16.2495 8.34058 16.032 8.07471 16.032C7.24194 16.032 6.14087 16.0967 5.24951 16.149C4.4021 16.1988 3.74414 16.2374 3.68628 16.1988C3.33545 16.032 3.04395 15.6584 3.10498 15.3157C3.20972 14.7267 4.14185 13.9355 4.14185 13.9355H4.37061C4.37061 13.9355 4.56445 14.0467 4.56445 14.1235C4.56445 14.2419 5.38794 14.2092 6.45557 14.1667C7.35547 14.131 8.42871 14.0883 9.32861 14.1235C9.94507 14.1476 10.0127 14.1874 10.1111 14.2455C10.1616 14.2755 10.2205 14.3102 10.3665 14.35C10.7283 14.4488 10.4963 14.4441 10.9116 14.5557C11.1729 14.626 11.9082 14.5998 12.5625 14.5764C12.8611 14.5658 13.1428 14.5557 13.355 14.5557C13.4153 14.5117 13.4282 14.4851 13.4387 14.4632C13.4548 14.4295 13.4656 14.407 13.636 14.35C13.9507 14.3257 14.6455 14.4592 14.6897 14.4201C14.7957 14.3261 14.9023 14.256 14.9023 14.256ZM11.1433 16.2941C11.4788 16.2209 12.5752 16.1274 13.4751 16.2941L13.5 16.3141C13.6074 16.3987 13.7217 16.4891 13.7217 16.7716C13.7217 17.1643 13.7217 17.4724 13.2856 17.5536C11.7214 17.371 11.0486 16.3955 11.1433 16.2941Z" fill="#F5F5F5"/>
<path fill-rule="evenodd" clip-rule="evenodd" d="M12 20.9676C14.0061 20.8784 16.2483 21.0567 16.2483 21.0567L17.8057 21.1621L18.8982 21.4563L20.5642 21.5602H22.0562C22.3516 21.5602 24 22.2681 24 23.2545V23.8942C24 24.9659 23.3755 25.0698 23.3755 25.0698C23.3755 25.0698 20.0261 24.9659 18.6379 24.9659C18.1528 24.9659 16.3777 24.4329 13.2351 23.0123C12.7839 23.0123 11.7837 22.8564 11.7837 22.8564L11.1938 23.0123L6.26611 22.8564L3.698 22.6839L2.43091 22.5623C2.43091 22.5623 1.98022 22.5623 1.78955 22.8564V26.1414C1.78955 26.1414 1.78955 27.871 0.956299 27.871C0.0671387 27.871 0.0671387 26.7817 0.0671387 26.7817V24.6726C0.0671387 24.6726 -0.0671387 22.9458 0.0671387 20.8784C0.315674 19.9793 1.26196 20.1589 1.26196 20.1589C1.26196 20.1589 1.78662 20.1296 2.27563 20.1589C2.66992 20.1825 3.02539 20.2194 3.30469 20.2515C3.61279 20.287 3.82764 20.3168 3.89893 20.3168C4.03467 20.3168 4.65601 20.4686 5.47656 20.5868C6.60547 20.7494 6.73267 20.7251 7.93726 20.8295C8.93018 20.9155 9.89771 20.8295 9.89771 20.8295H11.3281C11.4922 20.8295 11.616 20.8719 11.7266 20.9098C11.8218 20.9424 11.9072 20.9717 12 20.9676ZM21.5833 22.8432C21.5833 22.8432 22.1572 22.9122 22.4565 22.9984C22.6257 23.0471 22.73 23.0741 22.7925 23.1014C22.8589 23.1305 22.8784 23.16 22.8784 23.2166C22.8784 23.3387 22.8499 23.343 22.6206 23.3774C22.5745 23.3844 22.5203 23.3925 22.4565 23.4031C22.2754 23.4331 22.1077 23.3876 21.7976 23.4031C21.3369 23.426 21.3003 23.424 20.9658 23.4052L20.9277 23.4031C20.3271 23.3695 20.3486 23.3705 19.8577 23.3112C19.4521 23.2622 19.2151 23.2468 19.0168 23.2338C18.7629 23.2172 18.5735 23.2048 18.176 23.1315C18.113 23.1198 18.0486 23.1096 17.9839 23.0993C17.8225 23.0736 17.6589 23.0475 17.5066 22.9984C17.3335 22.9427 17.0132 22.7722 17.0132 22.7722C17.0132 22.7722 17.1621 22.7945 17.3289 22.8278C17.4597 22.8539 17.6016 22.8867 17.6909 22.9208C17.8655 22.9875 18.6338 22.9208 18.6338 22.9208C18.6338 22.9208 18.9841 22.9292 19.4387 22.9297C19.6885 22.9301 19.9695 22.928 20.241 22.9208C20.9497 22.9022 21.5833 22.8432 21.5833 22.8432Z" fill="#F5F5F5"/>
<path d="M13.7147 25.6004C13.6559 25.5613 13.5404 25.5891 13.3808 25.6004C13.0692 25.6226 13.1122 25.6463 12.7723 25.6675C12.2745 25.6985 12.2266 25.7627 11.7054 25.705C11.3266 25.663 11.3789 25.6453 11.1009 25.6004C10.7612 25.5456 10.4304 25.6004 10.4304 25.6004C10.4304 25.6004 9.92048 25.4285 9.52256 25.4071C7.8061 25.3145 6.20164 25.3724 6.20164 25.3724C6.20164 25.3724 5.87461 24.8354 5.6603 24.8354C5.43352 24.7538 4.9509 24.7538 4.71029 24.8354C3.40754 25.3724 3.45725 25.6422 3.10962 26.3886C2.95322 26.7319 4.71029 26.9886 4.71029 26.9886L5.56673 27.5521C5.56673 27.5521 8.02058 27.5899 10.4304 27.6719C10.6578 27.6796 10.7556 27.6713 10.8413 27.7314C11.0494 27.8776 11.917 27.9112 12.2693 27.8214C12.4884 27.7113 13.8119 27.5521 13.9355 26.2388C13.9355 25.9383 13.8156 25.6675 13.7147 25.6004Z" fill="#F5F5F5"/>
<path d="M16.6556 25.8188C16.8518 26.0124 16.8872 26.0406 16.953 26.3118C17.0359 26.654 17.0792 26.7251 16.953 27.0456C16.8002 27.4334 16.7594 27.5485 16.395 27.7284C15.9782 27.934 15.851 27.9023 15.4402 27.7284C15.0449 27.5609 15.014 27.428 14.7829 27.0456C14.6853 26.884 14.6851 26.5669 14.7829 26.4001C15.0819 25.8904 15.1329 25.9543 15.5765 25.6925C15.8398 25.5371 15.9017 25.5311 16.1968 25.5656C16.4413 25.5942 16.4737 25.6393 16.6556 25.8188Z" fill="#F5F5F5"/>
<path d="M14.1876 29.2137C13.9189 29.0466 13.8117 29.0269 13.3923 28.9813C13.1119 28.9508 13.0901 29.0615 12.788 29.0615C11.6463 29.0615 11.2012 29.0615 10.5414 28.9813C10.3584 28.8499 10.1873 28.93 9.81224 28.8625C9.29578 28.7696 9.27874 28.7637 8.72172 28.7407C6.65406 28.655 5.00815 28.6452 4.56288 28.6452C4.26856 28.6452 3.34851 28.6452 3.09681 29.4908C3.09681 30.9503 4.99069 31.5497 4.99069 31.5497C4.99069 31.5497 4.44828 31.5497 4.11059 31.7002C3.70494 31.8369 3.87227 32.3871 3.82221 33.0791C3.82221 33.9564 4.1561 33.9564 4.34655 33.9564C4.63179 33.9087 4.69852 33.7886 4.92102 33.3614C5.37491 33.4246 5.50254 33.4549 6.09989 33.5144C6.72531 33.5768 6.78582 33.4977 7.36658 33.6052C7.74582 33.6755 7.85275 33.8047 8.48634 33.8827C9.68302 33.9564 9.65051 33.9929 10.7264 33.9564C11.0353 33.9459 11.2976 33.8827 11.6031 33.8827C12.6306 33.8827 13.0887 34.0645 13.609 34.0645C13.9993 34.0204 14.6874 33.4417 14.6874 32.9149C14.6874 32.5722 14.3582 32.0422 13.7015 31.9277C11.339 31.774 11.339 32.0407 9.26724 31.8369C8.62834 31.774 8.79784 31.6028 8.28019 31.3943C7.42447 31.1864 7.54393 31.174 6.85893 30.9243C6.49801 30.7927 6.40679 30.8017 6.18834 30.6318C6.07149 30.5409 5.98636 30.4173 6.18834 30.4027C7.13536 30.3344 7.36658 30.1844 8.48634 30.4027C8.97122 30.4372 8.9465 30.4997 9.40356 30.5609C9.74375 30.6065 9.73045 30.7199 10.0808 30.739C11.8296 30.8345 13.138 30.861 13.609 30.861C14.1876 30.6318 14.5335 30.5328 14.6874 30.0113C14.7766 29.7091 14.5965 29.468 14.1876 29.2137Z" fill="#F5F5F5"/>
<path d="M14.4257 36.4035C14.2941 36.3284 13.9452 36.2231 13.6335 36.2595C13.3284 36.2951 13.3468 36.3964 13.0415 36.4035C12.5208 36.4157 12.4904 36.3715 11.9815 36.2982C11.4053 36.2153 11.4472 36.1956 10.8713 36.0911C10.1896 35.9674 10.1725 35.9971 9.46635 35.9471C8.13819 35.8531 8.12431 35.9168 6.80271 35.8032C6.32445 35.762 6.34381 35.6712 5.86663 35.6375C5.1729 35.5884 4.46089 35.6375 4.46089 35.6375C4.46089 35.6375 3.40518 35.6375 3.33993 36.5399C3.33993 37.5723 3.75017 37.3421 4.58824 37.734C6.00357 37.8799 5.71358 37.9826 6.86347 38.1291C7.55784 38.2176 8.27676 38.204 8.27676 38.204C8.27676 38.204 8.45979 38.619 7.04708 39.1371C5.55677 39.7706 5.16063 39.9414 3.99199 41.0632C3.23284 41.8966 3.33993 42.0808 3.09679 42.8684C3.16555 43.5886 3.33993 43.626 3.8779 44.0289C4.51878 44.2131 5.01591 44.0868 5.74346 44.0868C6.39997 44.0289 6.5964 43.879 6.52588 43.5253C6.46456 42.901 5.97592 42.9815 5.66605 42.2665C5.43863 41.6121 6.09122 41.1903 7.04708 40.5214C7.6561 40.0952 8.27676 40.2066 8.68652 39.9959C9.01077 39.8494 8.85228 39.7475 9.16338 39.6268C9.4586 39.5879 9.74515 39.575 9.97675 39.6727C11.1838 39.9959 11.0031 40.1292 11.9815 40.6302C12.9598 41.1311 13.0894 41.2991 13.5233 41.4982C13.5233 41.5657 13.7451 41.5887 13.755 41.6854C13.7734 41.8654 13.5672 42.1451 13.755 42.4929C13.9026 42.7664 14.1614 42.8684 14.4257 42.928C15.3277 42.8684 15.45 41.8966 15.45 41.8966C15.45 41.8966 15.4839 41.5117 15.4839 41.2344C15.3537 39.6268 14.4716 39.5357 13.9975 39.3093C13.5233 39.0829 12.9924 39.0234 11.9815 38.7479C11.4294 38.5975 11.2949 38.665 10.8713 38.4575C10.7399 38.3931 10.7925 38.2997 10.8713 38.204C10.9488 38.1099 11.0278 38.0587 11.1838 38.0778C11.4728 38.1131 11.7614 38.3128 11.7614 38.3128C11.7614 38.3128 12.0875 38.4267 12.4321 38.4575C12.8978 38.499 12.9071 38.4575 13.3821 38.4575C13.5685 38.4575 13.5775 38.491 13.755 38.4575C14.2485 38.3643 14.4158 38.4453 14.7241 38.204C15.0865 37.9204 15.0964 37.734 15.0964 37.4076C14.8137 36.5399 14.9848 36.7228 14.4257 36.4035Z" fill="#F5F5F5"/>
<path fill-rule="evenodd" clip-rule="evenodd" d="M0.790487 30.3778H1.65585L1.67028 30.2706C1.6744 30.2473 1.68144 30.2287 1.6914 30.2146C1.70135 30.2006 1.7156 30.1935 1.73415 30.1935H1.8382V30.3778H1.91649C1.97693 30.3778 2.03119 30.3885 2.07926 30.4097C2.12734 30.431 2.1682 30.4615 2.20186 30.5013C2.23551 30.541 2.26127 30.5894 2.27912 30.6464C2.29698 30.7034 2.30591 30.7676 2.30591 30.8391C2.30591 30.8961 2.29938 30.9491 2.28633 30.9981L2.15859 30.9921C2.14897 30.9913 2.14125 30.9881 2.13541 30.9824C2.12957 30.9768 2.12511 30.9694 2.12202 30.9601C2.11893 30.9509 2.11687 30.9403 2.11584 30.9282C2.11481 30.9162 2.11429 30.9033 2.11429 30.8897C2.11429 30.8544 2.11103 30.8228 2.1045 30.7951C2.09798 30.7674 2.08665 30.744 2.07051 30.7247C2.05437 30.7054 2.03308 30.6908 2.00664 30.6807C1.98019 30.6707 1.9474 30.6657 1.90825 30.6657H1.8382V30.9872H1.65688V30.6753H0.790487V30.3778ZM1.86401 31.669C1.86401 31.7605 1.85131 31.8438 1.8259 31.9189C1.80048 31.9939 1.76443 32.0582 1.71773 32.1116C1.67102 32.165 1.61402 32.2061 1.54671 32.235C1.47941 32.2639 1.4042 32.2784 1.3211 32.2784C1.23731 32.2784 1.16176 32.2639 1.09446 32.235C1.02715 32.2061 0.969802 32.165 0.922413 32.1116C0.875024 32.0582 0.838624 31.9939 0.813212 31.9189C0.7878 31.8438 0.775095 31.7605 0.775095 31.669C0.775095 31.5766 0.7878 31.4927 0.813212 31.4172C0.838624 31.3418 0.875024 31.2773 0.922413 31.2239C0.969802 31.1705 1.02715 31.1292 1.09446 31.0999C1.16176 31.0706 1.23731 31.0559 1.3211 31.0559C1.4042 31.0559 1.47941 31.0706 1.54671 31.0999C1.61402 31.1292 1.67102 31.1705 1.71773 31.2239C1.76443 31.2773 1.80048 31.3418 1.8259 31.4172C1.85131 31.4927 1.86401 31.5766 1.86401 31.669ZM0.97096 31.6689C0.97096 31.7717 1.00049 31.8478 1.05956 31.8972C1.11862 31.9466 1.20516 31.9712 1.31917 31.9712C1.43318 31.9712 1.52005 31.9466 1.57981 31.8972C1.63956 31.8478 1.66943 31.7717 1.66943 31.6689C1.66943 31.5646 1.63939 31.4873 1.57929 31.4371C1.5192 31.3869 1.43249 31.3618 1.31917 31.3618C1.20584 31.3618 1.11948 31.3869 1.06007 31.4371C1.00066 31.4873 0.97096 31.5646 0.97096 31.6689ZM1.84766 33.5707H0.790673V33.3888C0.790673 33.3495 0.806126 33.3246 0.837032 33.3142L0.921509 33.2937C0.877553 33.2431 0.842012 33.1873 0.814883 33.1263C0.787754 33.0652 0.77419 32.9934 0.77419 32.9107C0.77419 32.8432 0.783977 32.7836 0.803551 32.7318C0.823125 32.68 0.850768 32.6365 0.886482 32.6011C0.922196 32.5658 0.964605 32.5391 1.01371 32.5211C1.06282 32.503 1.1169 32.494 1.17597 32.494H1.84766V32.7914H1.17597C1.11141 32.7914 1.06144 32.8089 1.02607 32.8438C0.990703 32.8788 0.973018 32.9312 0.973018 33.001C0.973018 33.0524 0.982805 33.1006 1.00238 33.1455C1.02195 33.1905 1.04891 33.2331 1.08325 33.2732H1.84766V33.5707ZM1.71773 34.1428C1.73902 34.1677 1.75876 34.194 1.77696 34.2217C1.79516 34.2494 1.81062 34.2787 1.82332 34.3096C1.83603 34.3405 1.84599 34.3737 1.8532 34.409C1.86041 34.4443 1.86401 34.4829 1.86401 34.5246C1.86401 34.5921 1.85423 34.6519 1.83465 34.7041C1.81508 34.7563 1.78761 34.7998 1.75224 34.8347C1.71687 34.8697 1.67463 34.8962 1.62552 34.9142C1.57642 34.9323 1.52233 34.9413 1.46327 34.9413H0.790548V34.6438H1.46327C1.52783 34.6438 1.57779 34.6266 1.61316 34.5921C1.64853 34.5575 1.66622 34.5049 1.66622 34.4343C1.66622 34.3829 1.65626 34.3347 1.63634 34.2897C1.61642 34.2448 1.58929 34.2022 1.55495 34.1621H0.790548V33.8646H1.84753V34.0465C1.84753 34.085 1.83208 34.1103 1.80117 34.1223L1.71773 34.1428ZM1.57778 35.9988C1.6128 35.9651 1.63753 35.9283 1.65195 35.8886C1.66637 35.8488 1.67358 35.8061 1.67358 35.7603C1.67358 35.7153 1.66637 35.6748 1.65195 35.6387C1.63753 35.6025 1.61572 35.5716 1.58653 35.5459C1.55734 35.5202 1.52026 35.5006 1.47527 35.4869C1.43029 35.4733 1.37723 35.4664 1.31611 35.4664C1.25429 35.4664 1.20193 35.4723 1.159 35.4839C1.11608 35.4955 1.08105 35.5122 1.05392 35.5339C1.02679 35.5556 1.00722 35.5821 0.995199 35.6134C0.98318 35.6447 0.97717 35.6796 0.97717 35.7182C0.97717 35.78 0.988159 35.8326 1.01014 35.8759C1.03211 35.9193 1.06336 35.9602 1.10388 35.9988H1.57778ZM2.32153 36.2963H0.790659V36.1144C0.790659 36.0751 0.806112 36.0502 0.837018 36.0397L0.939008 36.0144C0.890245 35.9646 0.850754 35.9074 0.820535 35.8428C0.790316 35.7782 0.775206 35.7029 0.775206 35.617C0.775206 35.5495 0.787225 35.4877 0.811263 35.4315C0.835302 35.3753 0.870156 35.3269 0.915828 35.2864C0.961501 35.2458 1.01799 35.2145 1.0853 35.1924C1.1526 35.1703 1.22952 35.1593 1.31606 35.1593C1.39436 35.1593 1.46716 35.1717 1.53446 35.1966C1.60177 35.2215 1.66015 35.2573 1.7096 35.3038C1.75905 35.3504 1.79768 35.4062 1.82549 35.4712C1.85331 35.5363 1.86722 35.6093 1.86722 35.6904C1.86722 35.7595 1.85794 35.8185 1.8394 35.8675C1.82086 35.9165 1.79579 35.9602 1.7642 35.9988H2.32153V36.2963ZM1.24194 37.2429C1.23851 37.157 1.23216 37.0848 1.22288 37.0261C1.21361 36.9675 1.20177 36.9206 1.18734 36.8852C1.17292 36.8499 1.15609 36.8246 1.13686 36.8094C1.11763 36.7941 1.09669 36.7865 1.07402 36.7865C1.02938 36.7865 0.997443 36.8019 0.978213 36.8328C0.958982 36.8638 0.949367 36.9041 0.949367 36.9539C0.949367 37.0149 0.958811 37.0677 0.977698 37.1123C0.996585 37.1568 1.02526 37.2004 1.06372 37.2429H1.24194ZM1.7003 36.5612C1.81156 36.7034 1.86719 36.8744 1.86719 37.0743C1.86719 37.1466 1.85706 37.2112 1.8368 37.2682C1.81654 37.3252 1.78838 37.3734 1.75232 37.4128C1.71626 37.4521 1.67317 37.482 1.62303 37.5025C1.57289 37.523 1.51795 37.5332 1.4582 37.5332H0.790631V37.3983C0.790631 37.3702 0.794237 37.3485 0.801448 37.3333C0.808659 37.318 0.823254 37.306 0.845231 37.2971L0.921466 37.2706C0.897428 37.2393 0.876309 37.2088 0.858109 37.1791C0.839909 37.1494 0.824628 37.1185 0.812265 37.0864C0.799903 37.0542 0.790459 37.0199 0.783935 36.9834C0.77741 36.9469 0.774148 36.9065 0.774148 36.8623C0.774148 36.8102 0.780157 36.762 0.792176 36.7178C0.804195 36.6737 0.822224 36.6355 0.846262 36.6034C0.8703 36.5713 0.900175 36.5464 0.935889 36.5287C0.971603 36.5111 1.01315 36.5022 1.06054 36.5022C1.08733 36.5022 1.11394 36.5074 1.14038 36.5179C1.16682 36.5283 1.19206 36.5454 1.2161 36.5691C1.24014 36.5928 1.2628 36.6235 1.2841 36.6612C1.30539 36.6989 1.32393 36.7453 1.33973 36.8003C1.35552 36.8553 1.3684 36.9194 1.37836 36.9924C1.38832 37.0655 1.39433 37.149 1.39639 37.2429H1.4582C1.52894 37.2429 1.58131 37.2253 1.6153 37.1899C1.6493 37.1546 1.6663 37.1036 1.6663 37.037C1.6663 36.9888 1.66149 36.9489 1.65188 36.9171C1.64226 36.8854 1.63144 36.8575 1.61942 36.8334C1.60741 36.8094 1.59659 36.7875 1.58697 36.7678C1.57736 36.7481 1.57255 36.7262 1.57255 36.7022C1.57255 36.6813 1.57719 36.6636 1.58646 36.6492C1.59573 36.6347 1.60655 36.6231 1.61891 36.6142L1.7003 36.5612ZM0.790678 39.0423V38.7449H1.65707V38.1716H1.08428C1.05132 38.1716 1.02556 38.181 1.00702 38.1999C0.988476 38.2187 0.979204 38.2446 0.979204 38.2775C0.979204 38.296 0.981093 38.3115 0.98487 38.3239C0.988647 38.3364 0.992596 38.3472 0.996717 38.3564C1.00084 38.3657 1.00479 38.3739 1.00856 38.3811C1.01234 38.3883 1.01423 38.3956 1.01423 38.4028C1.01423 38.4116 1.01234 38.4189 1.00856 38.4245C1.00479 38.4301 0.999121 38.4361 0.991566 38.4425L0.867943 38.5317C0.837036 38.4883 0.813686 38.4385 0.797889 38.3823C0.782093 38.3261 0.774195 38.2679 0.774195 38.2077C0.774195 38.1001 0.800121 38.0176 0.851974 37.9602C0.903828 37.9028 0.975426 37.8741 1.06677 37.8741H1.65707V37.7476C1.65707 37.7315 1.66154 37.7179 1.67047 37.7067C1.67939 37.6954 1.69279 37.6898 1.71064 37.6898H1.8116L1.84045 37.8885L2.12787 37.9511C2.14161 37.9552 2.15226 37.9628 2.15981 37.974C2.16737 37.9853 2.17114 37.9997 2.17114 38.0174V38.1716H1.83839V39.0423H0.790678ZM2.15974 39.0941C2.13776 39.0941 2.11699 39.0889 2.09741 39.0785C2.07784 39.068 2.06084 39.0542 2.04642 39.0369C2.03199 39.0197 2.02049 38.9992 2.01191 38.9755C2.00332 38.9518 1.99903 38.9267 1.99903 38.9002C1.99903 38.8745 2.00332 38.8504 2.01191 38.828C2.02049 38.8055 2.03199 38.7858 2.04642 38.7689C2.06084 38.7521 2.07784 38.7386 2.09741 38.7286C2.11699 38.7185 2.13776 38.7135 2.15974 38.7135C2.1824 38.7135 2.20352 38.7185 2.2231 38.7286C2.24267 38.7386 2.25984 38.7521 2.27461 38.7689C2.28937 38.7858 2.30105 38.8055 2.30963 38.828C2.31822 38.8504 2.32251 38.8745 2.32251 38.9002C2.32251 38.9267 2.31822 38.9518 2.30963 38.9755C2.30105 38.9992 2.28937 39.0197 2.27461 39.0369C2.25984 39.0542 2.24267 39.068 2.2231 39.0785C2.20352 39.0889 2.1824 39.0941 2.15974 39.0941ZM1.86401 39.8926C1.86401 39.9842 1.85131 40.0675 1.8259 40.1426C1.80048 40.2176 1.76443 40.2819 1.71773 40.3353C1.67102 40.3887 1.61402 40.4298 1.54671 40.4587C1.47941 40.4876 1.4042 40.5021 1.3211 40.5021C1.23731 40.5021 1.16176 40.4876 1.09446 40.4587C1.02715 40.4298 0.969802 40.3887 0.922413 40.3353C0.875024 40.2819 0.838624 40.2176 0.813212 40.1426C0.7878 40.0675 0.775095 39.9842 0.775095 39.8926C0.775095 39.8003 0.7878 39.7164 0.813212 39.6409C0.838624 39.5654 0.875024 39.501 0.922413 39.4476C0.969802 39.3942 1.02715 39.3529 1.09446 39.3236C1.16176 39.2943 1.23731 39.2796 1.3211 39.2796C1.4042 39.2796 1.47941 39.2943 1.54671 39.3236C1.61402 39.3529 1.67102 39.3942 1.71773 39.4476C1.76443 39.501 1.80048 39.5654 1.8259 39.6409C1.85131 39.7164 1.86401 39.8003 1.86401 39.8926ZM0.97096 39.8926C0.97096 39.9954 1.00049 40.0715 1.05956 40.1209C1.11862 40.1703 1.20516 40.1949 1.31917 40.1949C1.43318 40.1949 1.52005 40.1703 1.57981 40.1209C1.63956 40.0715 1.66943 39.9954 1.66943 39.8926C1.66943 39.7883 1.63939 39.711 1.57929 39.6608C1.5192 39.6106 1.43249 39.5855 1.31917 39.5855C1.20584 39.5855 1.11948 39.6106 1.06007 39.6608C1.00066 39.711 0.97096 39.7883 0.97096 39.8926ZM1.71773 41.0079C1.73902 41.0328 1.75876 41.0591 1.77696 41.0868C1.79516 41.1145 1.81062 41.1438 1.82332 41.1747C1.83603 41.2056 1.84599 41.2388 1.8532 41.2741C1.86041 41.3094 1.86401 41.348 1.86401 41.3897C1.86401 41.4572 1.85423 41.517 1.83465 41.5692C1.81508 41.6214 1.78761 41.6649 1.75224 41.6999C1.71687 41.7348 1.67463 41.7613 1.62552 41.7793C1.57642 41.7974 1.52233 41.8064 1.46327 41.8064H0.790548V41.509H1.46327C1.52783 41.509 1.57779 41.4917 1.61316 41.4572C1.64853 41.4226 1.66622 41.37 1.66622 41.2994C1.66622 41.248 1.65626 41.1998 1.63634 41.1549C1.61642 41.1099 1.58929 41.0673 1.55495 41.0272H0.790548V40.7297H1.84753V40.9116C1.84753 40.9501 1.83208 40.9754 1.80117 40.9874L1.71773 41.0079Z" fill="#F5F5F5"/>
</svg>
