<?xml version="1.0" encoding="UTF-8"?>
<svg width="289px" height="155px" viewBox="0 0 289 155" version="1.1" xmlns="http://www.w3.org/2000/svg" xmlns:xlink="http://www.w3.org/1999/xlink">
    <!-- Generator: Sketch 51.1 (57501) - http://www.bohemiancoding.com/sketch -->
    <title>logo-white</title>
    <desc>Created with Sketch.</desc>
    <defs></defs>
    <g id="1366x768-large-display" stroke="none" stroke-width="1" fill="none" fill-rule="evenodd">
        <g id="main-page" transform="translate(-539.000000, -403.000000)">
            <g id="header">
                <g id="logo-white" transform="translate(539.000000, 403.000000)">
                    <path d="M10.8260633,60.9593732 C12.2736833,59.6335706 13.7535426,58.9706693 15.265641,58.9706693 C16.7777395,58.9706693 18.1632973,59.6335706 19.4223146,60.9593732 L19.4223146,64.5407889 C24.0126661,58.2488966 31.8423335,54.7888105 42.9113167,54.1605304 C44.5164163,54.8202613 49.9840749,54.1605304 49.9840749,70.0110274 C49.9840749,70.9534475 49.9840749,85.2943031 37.055928,90.2968329 C36.8730153,90.5805931 36.8730153,90.9890857 37.055928,91.5223108 C42.7821962,95.0452987 46.2409309,100.015026 47.4321323,106.431493 C48.0026706,108.821513 47.8235447,112.524021 46.8947547,117.539017 C44.9917387,127.176981 39.5616817,133.64608 30.6045838,136.946315 C28.2430573,136.946315 26.2877599,136.946315 24.7386918,136.946315 L20.7103167,134.745443 L15.9445029,131.995963 C16.35759,134.054699 16.35759,135.704817 15.9445029,136.946315 C15.3248723,138.808562 14.8647265,138.752249 13.5669605,139.141465 C12.2691945,139.53068 9.71525599,140.004035 8.62519143,139.141465 C7.53512686,138.278894 7.68774204,138.278894 7.53512686,136.946315 C7.38251169,135.613736 7.53512686,131.995963 7.53512686,129.623427 C3.31935223,127.240163 0.568441257,124.30241 0.568441257,122.112424 C0.568441257,120.652434 0.568441257,117.479755 0.568441257,112.594387 L9.54931441,112.594387 L10.8260633,60.9593732 Z M38.8200542,69.2303076 C37.1463154,68.145636 31.283528,69.8919888 26.8912934,73.7778151 C25.0216819,75.4318673 19.8590654,79.4291071 19.2478859,85.8800723 C26.5245794,85.8800723 29.7611298,82.6466276 32.7191221,80.4833393 C39.4295704,75.5757421 38.8200542,69.2303076 38.8200542,69.2303076 Z M19.2680124,99.8957804 C18.4777343,100.687742 18.4777343,118.071336 19.2680124,118.863018 C20.4732287,120.070374 20.7632219,120.070374 22.3558784,120.731509 C23.948535,121.392644 28.9485213,121.194381 32.268874,120.731509 C34.6791252,118.8324 36.2108504,115.324278 36.8640497,110.207142 C37.2008159,107.739488 37.2008159,105.644381 36.8640497,103.921821 C36.8640497,99.6827758 31.7679342,99.1085893 28.5332942,99.1085893 C23.8629075,99.1085893 20.2165167,98.9452552 19.2680124,99.8957804 Z" id="Combined-Shape" fill="#F5F5F5" fill-rule="nonzero"></path>
                    <path d="M55.1103962,58.5646217 C54.9775766,61.2166857 54.9775766,63.8161432 55.1103962,66.3629939 C55.1967078,68.0180388 55.0383572,67.3338432 55.0383572,69.004637 C55.0383572,74.1264412 55.1103962,77.1528051 55.1103962,82.7808738 C55.1103962,84.3202881 54.0550526,84.7116673 53.9120884,87.1998463 C53.4783796,94.748202 53.1683462,102.482353 52.9819883,110.402299 L52.0447405,116.121442 C51.5147792,117.852543 51.236502,118.869189 51.2099087,119.17138 C50.741437,124.494843 50.741437,129.624576 51.2099087,131.721992 C52.9819883,135.269025 54.9648516,138.624005 58.5624132,138.624005 C62.6030034,138.624005 67.9917886,135.156883 74.7287687,128.222637 L74.7287687,131.130188 L75.2221195,133.344167 L75.9898283,133.764886 C79.3179916,134.928538 82.4994651,134.928538 85.5342488,133.764886 C87.3174931,133.081122 88.9314813,131.701018 90.3762135,129.624576 C91.2620523,125.789778 88.9452219,124.246229 83.4257221,124.99393 C83.4257221,119.732343 83.0124773,119.609131 83.4257221,114.399494 C84.1120473,105.747226 84.2168539,105.200526 84.8301275,95.9487201 C85.3111372,88.6922396 85.7328608,81.4181466 86.0952984,74.1264412 L87.2173975,69.004637 L87.2173975,57.0057959 C86.4693314,55.6943963 84.5755037,55.0386964 81.5359142,55.0386964 C78.4963247,55.0386964 76.3917265,55.5541567 75.2221195,56.5850773 L75.2221195,73.5640212 L74.7287687,78.1258722 C75.0544363,84.1789608 75.0544363,89.7209355 74.7287687,94.7517961 C74.6563576,95.8703907 73.9603788,98.8493906 73.6069436,101.700095 C73.3993293,103.374651 73.0649438,103.139441 72.4848445,104.506165 C72.0822163,105.454764 72.1332735,105.624816 71.6414886,106.330741 C71.0093928,107.238073 70.457972,108.95756 70.2370832,109.55753 C70.0567209,110.047423 69.5898648,111.263898 68.8365149,113.206955 C68.3956013,113.434124 67.9978144,113.434124 67.643154,113.206955 C67.2979393,112.985837 67.0821044,112.872447 67.0821044,112.083212 C67.0821044,104.488223 67.643154,102.090627 67.643154,96.4385079 C67.643154,95.0058699 67.6276032,91.2447401 68.414974,89.2109178 C68.8365149,88.1220544 69.2542186,87.3671012 69.2542186,86.61507 C69.2542186,86.113716 69.2542186,81.7633664 69.2542186,73.5640212 L68.8365149,69.9165139 L68.414974,66.3629939 L67.643154,63.1104647 L66.3818203,60.7950046 C65.872793,60.2734599 65.3344011,59.8288046 64.7666444,59.4610387 C64.4820792,59.2767109 65.3628669,58.0498561 64.7666444,57.9889346 C60.6304903,57.5663055 57.4117409,57.7582012 55.1103962,58.5646217 Z" id="Path-10" fill="#F5F5F5" fill-rule="nonzero"></path>
                    <path d="M95.4743558,56.8957719 C101.00142,55.9648725 106.094445,55.7255302 110.753431,56.1777448 C117.74191,56.8560669 124.641212,59.7936238 125.230285,66.662225 C125.903474,67.340498 125.976475,70.0061378 125.976475,71.5157513 C124.476238,84.3683389 120.801463,92.9639996 114.952149,97.3027334 L114.952149,98.517852 L124.641212,110.303429 C124.634121,111.790224 124.830478,112.989068 125.230285,113.899961 C127.13292,120.890553 129.732301,122.187317 130.711369,124.133271 C131.227247,125.982031 134.340759,130.812979 125.230285,134.671725 C120.010197,134.983232 114.534858,128.80571 108.804271,116.139162 L108.804271,108.538548 C109.013098,105.866263 109.013098,104.385467 108.804271,104.096159 C107.750083,102.635688 106.41088,103.10112 106.41088,104.855512 C106.41088,115.578635 107.925933,133.035633 107.437815,133.819741 C106.41088,136.134708 104.110179,138.05836 102,137.656224 C99.581774,137.195385 96.7486915,134.914303 93.5007524,130.812979 L93.5007524,129.302179 C93.9571971,128.449701 94.3430938,128.023462 94.6584426,128.023462 C96.0017863,128.023462 94.1854194,109.565621 94.6584426,96.5808854 C94.8829119,90.419084 95.330906,92.5665798 96.0534276,89.7303872 C96.6617511,87.3424686 96.6324994,88.873987 97.3201329,86.1326631 C97.9503735,83.6201423 97.3201329,74.4726888 97.3201329,70.0061378 C96.6324994,68.9950743 96.6324994,70.0061378 96.0534276,68.1512951 C95.9033844,66.0755165 96.7257257,61.4887086 96.4849475,61.1978899 C96.0988996,60.7316106 95.7620358,60.2635219 95.4743558,59.7936238 L95.4743558,56.8957719 Z M108.024751,69.2132598 C106.998335,75.1535615 107.574077,82.3902733 108.024751,84.6034995 C108.649079,85.2283164 114.655825,80.7874003 115.780105,70.4650928 C115.280153,67.5865855 113.383031,67.5865855 110.96508,67.5865855 C109.088919,67.5865855 108.588724,68.4652878 108.024751,69.2132598 Z" id="Combined-Shape" fill="#F5F5F5" fill-rule="nonzero"></path>
                    <path d="M139.62419,50.3425743 L140.298812,40.4080603 L142.181731,33.4388804 L142.84713,22.8132481 C142.84713,17.5001438 142.84713,14.3275002 142.84713,13.2953173 C142.84713,11.4119655 147.378243,0.897016915 153.691968,0.897016915 C155.129126,0.897016915 155.129126,0.897016915 157.786831,0.897016915 C162.360027,0.897016915 164.86828,2.22478859 165.311591,4.88033193 C164.86828,19.1236484 164.646625,29.196727 164.646625,35.0995678 C164.646625,38.1943869 161.234714,49.5167728 152.141532,69.5620028 C152.141532,71.4805197 151.808904,74.5665353 151.143649,78.8200494 L152.141532,82.5828618 L151.143649,114.014862 L150.039407,130.395613 L149.261162,138.478115 C149.261162,140.394614 149.888658,141.758271 151.143649,142.569087 C158.375847,142.569087 165.385092,142.569087 172.171385,142.569087 C179.551737,142.569087 183.241913,144.340602 183.241913,147.883633 C183.241913,151.664522 180.917845,153.554967 176.269707,153.554967 L162.769233,153.554967 C155.400315,154.126616 147.304763,154.126616 138.482577,153.554967 C134.646127,152.498896 133.111061,149.95867 133.877377,145.934292 C133.752368,143.703445 133.752368,141.547875 133.877377,139.467584 C134.195251,134.177818 134.888152,129.979784 134.888152,129.113887 C134.888152,128.247991 135.859545,124.284336 136.616014,119.050508 C137.656758,111.849849 137.501466,111.038046 138.169447,103.355771 C138.536583,99.1334294 138.536583,94.964747 138.169447,90.8497236 C138.169447,87.922103 138.169447,84.8806554 138.169447,81.725381 C138.169447,79.777868 139.11046,78.7198134 139.053383,77.4403605 C138.672846,68.910021 138.863114,59.8774256 139.62419,50.3425743 Z M152.052951,10.741254 C151.684852,12.0137178 151.35374,13.870797 151.059615,16.3124915 C151.311172,19.0061788 151.476728,21.8597047 151.556283,24.8730691 C151.685285,29.7593941 151.556283,35.1252346 151.556283,35.1252346 C151.556283,35.1252346 151.983027,40.0257191 151.556283,41.1400128 C151.225171,42.0045972 150.908135,43.4452499 150.605176,45.4619706 C151.332328,44.0999949 151.81492,43.0511297 152.052951,42.3153751 C152.493173,40.9546489 152.644218,39.4521411 152.904756,38.0451494 C153.740347,33.5326755 153.339814,33.2215163 154.05513,27.3186602 C154.434622,24.1870526 154.428269,24.3247291 154.643013,20.4930589 C154.77545,18.1299877 154.795256,17.9909827 154.643013,14.9452935 C154.544103,12.9665662 154.835341,11.8965406 154.643013,10.741254 C154.238659,8.3123649 154.387858,8.05049796 153.449648,8.05049796 C152.745646,8.05049796 152.69582,8.51895297 152.052951,10.741254 Z" id="Combined-Shape" fill="#F5F5F5" fill-rule="nonzero"></path>
                    <path d="M166.739734,64.3870259 C166.503734,64.7604911 166.671262,65.4935047 166.739734,66.5061465 C166.873459,68.4838365 167.016223,68.2109057 167.144127,70.3676895 C167.33148,73.5269148 167.718457,73.8309695 167.370246,77.1381646 C167.117163,79.5418607 167.01036,79.210291 166.739734,80.9743901 C166.409066,83.1298716 166.739734,85.2294886 166.739734,85.2294886 C166.739734,85.2294886 165.702567,88.4653818 165.573135,90.9905322 C165.200917,98.2522951 165.131277,105.277144 165.364215,112.065078 C163.204607,113.448618 162.124803,114.593742 162.124803,115.500449 C161.632208,116.93959 161.632208,120.002252 162.124803,121.52917 C165.364215,129.796389 166.991459,129.480965 171.494644,131.686994 C172.87526,132.348686 174.081618,128.962744 175.11372,121.52917 L178.51321,116.094232 C178.665341,105.71283 178.906183,95.4245825 179.235735,85.2294886 C179.282392,83.7860772 179.232138,83.1657485 179.595181,82.6221277 C180.477085,81.3015665 180.679621,75.7954729 180.138124,73.5598529 C179.47341,72.1695244 178.51321,63.7704291 170.590651,62.9858023 C168.77803,62.9858023 167.144127,63.7470784 166.739734,64.3870259 Z" id="Path-4" fill="#F5F5F5" fill-rule="nonzero"></path>
                    <path d="M168.066929,48.2576677 C169.247668,47.0373693 169.419642,46.8172013 171.073503,46.4083489 C173.160009,45.8925419 173.593773,45.6234268 175.547661,46.4083489 C177.912617,47.358406 178.614765,47.6123111 179.71119,49.8783073 C180.965431,52.4704639 180.772105,53.2617616 179.71119,55.8164346 C178.690341,58.2746269 177.879689,58.4672251 175.547661,59.9040378 C174.562485,60.5110267 172.62902,60.5126129 171.611607,59.9040378 C168.503755,58.0450467 168.893524,57.7274514 167.297132,54.9689054 C166.349279,53.3310258 166.312625,52.9463027 166.523118,51.1111866 C166.697524,49.5906838 166.972476,49.3887882 168.066929,48.2576677 Z" id="Path-5" fill="#F5F5F5" fill-rule="nonzero"></path>
                    <path d="M189.870597,63.5154962 C188.830342,65.2467534 188.708144,65.9379553 188.424226,68.640456 C188.234366,70.4476529 188.923041,70.5876737 188.923041,72.5348914 C188.923041,79.8917065 188.923041,82.7603202 188.424226,87.0121607 C187.605972,88.1914107 188.104788,89.2940624 187.684729,91.7107488 C187.106238,95.0389202 187.069535,95.1487142 186.925942,98.7382373 C186.392928,112.062509 186.331515,122.668942 186.331515,125.538338 C186.331515,127.434943 186.331515,133.363864 191.595974,134.985847 C197.6532,134.985847 201.925556,130.91771 204.413041,122.781435 C204.413041,125.1117 204.725381,127.002193 205.35006,128.452917 C206.20082,131.067029 209.626503,129.988694 213.933961,130.311291 C219.395394,130.311291 219.395394,128.159663 219.395394,126.932377 C219.098665,125.094256 218.351043,124.664267 215.691583,123.23042 C216.084747,120.30553 216.273558,119.483058 216.64433,115.633656 C217.03253,111.603326 216.540041,111.213412 217.209526,107.470955 C217.646663,105.027042 218.451253,104.338007 218.937051,100.255068 C219.395394,92.5434845 219.623031,92.7530008 219.395394,85.8198067 C219.330028,83.8289175 218.937051,82.1387812 218.937051,80.1704714 C218.937051,73.5491058 220.068768,70.5967123 220.068768,67.2436851 C219.794298,64.7286888 216.191509,60.2947776 212.912158,60.2947776 C210.778631,60.2947776 207.478868,62.415868 206.766016,66.6481784 C205.809539,81.872303 207.469616,81.872303 206.20082,95.2228242 C205.809539,99.3399641 204.743812,98.2476954 203.445862,101.5835 C202.151288,107.097845 202.074066,106.328049 200.519647,110.742287 C199.700634,113.068118 199.756707,113.655956 198.698997,115.063639 C198.133212,115.816632 197.363322,116.365216 197.272657,115.063639 C196.847559,108.96093 195.913931,107.470955 197.272657,100.255068 C197.487283,97.130431 197.876377,97.2897337 198.257487,94.3443878 C198.541149,92.1521543 199.247479,92.2378551 199.366551,89.9799096 C199.960835,78.7106133 200.125709,70.2791704 200.125709,67.2436851 C198.698997,63.5154962 198.082424,61.2864034 194.83625,60.2947776 C192.954869,59.7200623 191.453831,60.8805799 189.870597,63.5154962 Z" id="Path-6" fill="#F5F5F5" fill-rule="nonzero"></path>
                    <path d="M237.584672,62.6785881 C237.087529,63.5244756 236.390451,65.7684949 236.631322,67.7729316 C236.867127,69.7352142 237.537306,69.6164766 237.584672,71.5801396 C237.665443,74.9286655 237.372686,75.1241438 236.887595,78.3973094 C236.338496,82.1023734 236.208114,81.8334062 235.516292,85.5365989 C234.697248,89.920781 234.89376,90.0307965 234.562941,94.5720589 C233.940719,103.113506 234.362773,103.202767 233.61021,111.702017 C233.337874,114.777707 232.736684,114.653225 232.513144,117.721941 C232.296482,120.696243 232.296482,123.709715 232.513144,126.762356 C232.513144,131.288533 234.504522,133.691507 238.487278,133.97128 C245.322456,133.97128 243.798157,131.333008 246.392566,125.943357 C247.358432,116.841328 248.03858,118.706236 249.008659,111.311278 C249.39919,108.334246 249.564409,105.304602 249.504316,102.222345 C251.335955,101.437617 253.395118,104.073649 255.681805,110.130441 C259.875885,119.714708 261.006535,122.262269 268.433195,129.777812 C273.950373,134.659946 275.169673,133.97128 280.383575,135.534898 C285.15146,135.092722 285.399632,133.97128 288.06638,130.51153 C289.286432,126.390016 288.449876,123.192986 288.449876,118.5141 C288.06638,114.29205 287.074463,113.028804 284.732907,113.482313 C280.599618,113.876685 281.132342,117.019148 276.399389,119.011915 C272.06665,120.474474 269.274186,116.27761 264.845882,110.130441 C262.024435,106.213837 262.761942,102.222345 261.367162,99.5871621 C260.397383,97.5019078 259.722656,98.5211452 258.923444,96.5204939 C258.66626,94.6218906 258.580478,92.7790616 259.227395,91.2896695 C261.367162,83.527035 262.24982,84.6892476 265.566247,78.3973094 C268.882673,72.1053712 269.994992,71.2719138 271.313086,68.4815631 C271.759411,68.4815631 271.911914,67.0554682 272.552096,66.9918824 C273.743879,66.8735091 275.595351,68.1992499 277.898102,66.9918824 C279.708615,66.0426028 280.383575,64.3778547 280.778625,62.6785881 C280.515258,58.8113022 278.239175,56.6154149 273.950373,56.0909264 C272.251486,55.9457049 270.790162,55.8730942 269.566402,55.8730942 C258.923444,56.7102317 258.32029,62.382962 256.821704,65.4322626 C255.323117,68.4815631 254.928948,71.8956373 253.105203,78.3973094 C252.109275,81.9478055 252.556331,82.8124953 251.182358,85.5365989 C250.755888,86.38214 250.138097,86.0433011 249.504316,85.5365989 C248.88132,85.0385191 248.542514,84.5305743 248.668805,83.527035 C248.902697,81.668478 250.224681,79.8124063 250.224681,79.8124063 C250.224681,79.8124063 250.978722,77.7153236 251.182358,75.4991121 C251.457561,72.504031 251.182358,72.4444667 251.182358,69.3898212 C251.182358,68.1908518 251.404275,68.1332216 251.182358,66.9918824 C250.565254,63.8180551 251.101785,62.7422045 249.504316,60.7594882 C247.626576,58.4289103 246.392566,58.3652939 244.23194,58.3652939 C238.487278,60.1828453 239.698087,59.0826248 237.584672,62.6785881 Z" id="Path-13" fill="#F5F5F5" fill-rule="nonzero"></path>
                    <path d="M198.664,143.992 L198.664,147.68 L203.168,147.68 L203.168,149.192 L198.664,149.192 L198.664,154 L196.784,154 L196.784,142.48 L203.968,142.48 L203.968,143.992 L198.664,143.992 Z M208.336,145.712 C208.93867,145.712 209.483998,145.810666 209.972,146.008 C210.460002,146.205334 210.875998,146.485332 211.22,146.848 C211.564002,147.210668 211.829332,147.650664 212.016,148.168 C212.202668,148.685336 212.296,149.266663 212.296,149.912 C212.296,150.557337 212.202668,151.138664 212.016,151.656 C211.829332,152.173336 211.564002,152.614665 211.22,152.98 C210.875998,153.345335 210.460002,153.626666 209.972,153.824 C209.483998,154.021334 208.93867,154.12 208.336,154.12 C207.727997,154.12 207.180002,154.021334 206.692,153.824 C206.203998,153.626666 205.786668,153.345335 205.44,152.98 C205.093332,152.614665 204.826668,152.173336 204.64,151.656 C204.453332,151.138664 204.36,150.557337 204.36,149.912 C204.36,149.266663 204.453332,148.685336 204.64,148.168 C204.826668,147.650664 205.093332,147.210668 205.44,146.848 C205.786668,146.485332 206.203998,146.205334 206.692,146.008 C207.180002,145.810666 207.727997,145.712 208.336,145.712 Z M208.336,152.776 C209.072004,152.776 209.619998,152.529336 209.98,152.036 C210.340002,151.542664 210.52,150.837338 210.52,149.92 C210.52,149.002662 210.340002,148.294669 209.98,147.796 C209.619998,147.297331 209.072004,147.048 208.336,147.048 C207.58933,147.048 207.034668,147.297331 206.672,147.796 C206.309332,148.294669 206.128,149.002662 206.128,149.92 C206.128,150.837338 206.309332,151.542664 206.672,152.036 C207.034668,152.529336 207.58933,152.776 208.336,152.776 Z M220.824,145.84 L220.824,154 L219.784,154 C219.554666,154 219.408,153.890668 219.344,153.672 L219.216,152.912 C219.045332,153.093334 218.865334,153.258666 218.676,153.408 C218.486666,153.557334 218.285334,153.685333 218.072,153.792 C217.858666,153.898667 217.630668,153.981333 217.388,154.04 C217.145332,154.098667 216.885335,154.128 216.608,154.128 C216.159998,154.128 215.765335,154.053334 215.424,153.904 C215.082665,153.754666 214.796001,153.544001 214.564,153.272 C214.331999,152.999999 214.157334,152.673335 214.04,152.292 C213.922666,151.910665 213.864,151.490669 213.864,151.032 L213.864,145.84 L215.584,145.84 L215.584,151.032 C215.584,151.581336 215.710665,152.007998 215.964,152.312 C216.217335,152.616002 216.602664,152.768 217.12,152.768 C217.498669,152.768 217.851998,152.681334 218.18,152.508 C218.508002,152.334666 218.815999,152.096002 219.104,151.792 L219.104,145.84 L220.824,145.84 Z M224.528,146.92 C224.704001,146.738666 224.886666,146.574667 225.076,146.428 C225.265334,146.281333 225.466666,146.154667 225.68,146.048 C225.893334,145.941333 226.119999,145.858667 226.36,145.8 C226.600001,145.741333 226.861332,145.712 227.144,145.712 C227.592002,145.712 227.985332,145.786666 228.324,145.936 C228.662668,146.085334 228.947999,146.295999 229.18,146.568 C229.412001,146.840001 229.586666,147.166665 229.704,147.548 C229.821334,147.929335 229.88,148.349331 229.88,148.808 L229.88,154 L228.168,154 L228.168,148.808 C228.168,148.258664 228.041335,147.832002 227.788,147.528 C227.534665,147.223998 227.149336,147.072 226.632,147.072 C226.247998,147.072 225.892002,147.159999 225.564,147.336 C225.235998,147.512001 224.928001,147.751998 224.64,148.056 L224.64,154 L222.92,154 L222.92,145.84 L223.96,145.84 C224.194668,145.84 224.344,145.949332 224.408,146.168 L224.528,146.92 Z M237.104,147.848 C236.863999,147.538665 236.600001,147.322667 236.312,147.2 C236.023999,147.077333 235.712002,147.016 235.376,147.016 C234.703997,147.016 234.178669,147.262664 233.8,147.756 C233.421331,148.249336 233.232,148.978662 233.232,149.944 C233.232,150.445336 233.274666,150.873332 233.36,151.228 C233.445334,151.582668 233.567999,151.871999 233.728,152.096 C233.888001,152.320001 234.082666,152.482666 234.312,152.584 C234.541334,152.685334 234.799999,152.736 235.088,152.736 C235.525336,152.736 235.902665,152.641334 236.22,152.452 C236.537335,152.262666 236.831999,151.994668 237.104,151.648 L237.104,147.848 Z M238.824,142.16 L238.824,154 L237.784,154 C237.554666,154 237.408,153.890668 237.344,153.672 L237.192,152.784 C236.850665,153.184002 236.462669,153.506665 236.028,153.752 C235.593331,153.997335 235.088003,154.12 234.512,154.12 C234.053331,154.12 233.637335,154.028001 233.264,153.844 C232.890665,153.659999 232.570668,153.392002 232.304,153.04 C232.037332,152.687998 231.830667,152.252003 231.684,151.732 C231.537333,151.211997 231.464,150.616003 231.464,149.944 C231.464,149.335997 231.545333,148.773336 231.708,148.256 C231.870667,147.738664 232.103998,147.289335 232.408,146.908 C232.712002,146.526665 233.081331,146.228001 233.516,146.012 C233.950669,145.795999 234.437331,145.688 234.976,145.688 C235.456002,145.688 235.863998,145.763999 236.2,145.916 C236.536002,146.068001 236.837332,146.279999 237.104,146.552 L237.104,142.16 L238.824,142.16 Z M245.28,150.432 C244.666664,150.453333 244.149335,150.502666 243.728,150.58 C243.306665,150.657334 242.965335,150.755999 242.704,150.876 C242.442665,150.996001 242.254667,151.138666 242.14,151.304 C242.025333,151.469334 241.968,151.650666 241.968,151.848 C241.968,152.040001 241.998666,152.203999 242.06,152.34 C242.121334,152.476001 242.206666,152.588 242.316,152.676 C242.425334,152.764 242.553333,152.828 242.7,152.868 C242.846667,152.908 243.007999,152.928 243.184,152.928 C243.632002,152.928 244.017332,152.844001 244.34,152.676 C244.662668,152.507999 244.975998,152.264002 245.28,151.944 L245.28,150.432 Z M240.72,146.976 C241.642671,146.117329 242.741327,145.688 244.016,145.688 C244.485336,145.688 244.902665,145.763999 245.268,145.916 C245.633335,146.068001 245.939999,146.282665 246.188,146.56 C246.436001,146.837335 246.625333,147.166665 246.756,147.548 C246.886667,147.929335 246.952,148.351998 246.952,148.816 L246.952,154 L246.184,154 C246.018666,154 245.893334,153.974667 245.808,153.924 C245.722666,153.873333 245.650667,153.770667 245.592,153.616 L245.424,152.952 C245.215999,153.138668 245.010668,153.305333 244.808,153.452 C244.605332,153.598667 244.396001,153.722666 244.18,153.824 C243.963999,153.925334 243.732001,154.001333 243.484,154.052 C243.235999,154.102667 242.962668,154.128 242.664,154.128 C242.333332,154.128 242.025335,154.082667 241.74,153.992 C241.454665,153.901333 241.208001,153.764001 241,153.58 C240.791999,153.395999 240.628001,153.168001 240.508,152.896 C240.387999,152.623999 240.328,152.304002 240.328,151.936 C240.328,151.621332 240.411999,151.314668 240.58,151.016 C240.748001,150.717332 241.025331,150.449335 241.412,150.212 C241.798669,149.974665 242.307997,149.778667 242.94,149.624 C243.572003,149.469333 244.351995,149.381333 245.28,149.36 L245.28,148.816 C245.28,148.22933 245.154668,147.792001 244.904,147.504 C244.653332,147.215999 244.285336,147.072 243.8,147.072 C243.469332,147.072 243.192001,147.113333 242.968,147.196 C242.743999,147.278667 242.549334,147.368 242.384,147.464 C242.218666,147.56 242.072001,147.649333 241.944,147.732 C241.815999,147.814667 241.680001,147.856 241.536,147.856 C241.418666,147.856 241.318667,147.825334 241.236,147.764 C241.153333,147.702666 241.085334,147.626667 241.032,147.536 L240.72,146.976 Z M256.768,154 L255.048,154 L255.048,147.192 L251.072,147.192 L251.072,151.824 C251.072,152.117335 251.143999,152.341333 251.288,152.496 C251.432001,152.650667 251.623999,152.728 251.864,152.728 C251.997334,152.728 252.112,152.710667 252.208,152.676 C252.304,152.641333 252.386666,152.604 252.456,152.564 C252.525334,152.524 252.585333,152.486667 252.636,152.452 C252.686667,152.417333 252.736,152.4 252.784,152.4 C252.88,152.4 252.957333,152.453333 253.016,152.56 L253.528,153.4 C253.261332,153.634668 252.946668,153.814666 252.584,153.94 C252.221332,154.065334 251.848002,154.128 251.464,154.128 C250.786663,154.128 250.265335,153.937335 249.9,153.556 C249.534665,153.174665 249.352,152.637337 249.352,151.944 L249.352,147.192 L248.456,147.192 C248.36,147.192 248.277334,147.161334 248.208,147.1 C248.138666,147.038666 248.104,146.946667 248.104,146.824 L248.104,146.128 L249.424,145.936 L249.8,143.576 C249.826667,143.485333 249.872,143.412 249.936,143.356 C250,143.3 250.085333,143.272 250.192,143.272 L251.072,143.272 L251.072,145.952 L256.768,145.952 L256.768,154 Z M257.12,143.336 C257.12,143.490667 257.089334,143.635999 257.028,143.772 C256.966666,143.908001 256.882667,144.027999 256.776,144.132 C256.669333,144.236001 256.545334,144.318666 256.404,144.38 C256.262666,144.441334 256.114667,144.472 255.96,144.472 C255.805333,144.472 255.660001,144.441334 255.524,144.38 C255.387999,144.318666 255.268001,144.236001 255.164,144.132 C255.059999,144.027999 254.977334,143.908001 254.916,143.772 C254.854666,143.635999 254.824,143.490667 254.824,143.336 C254.824,143.175999 254.854666,143.025334 254.916,142.884 C254.977334,142.742666 255.059999,142.620001 255.164,142.516 C255.268001,142.411999 255.387999,142.329334 255.524,142.268 C255.660001,142.206666 255.805333,142.176 255.96,142.176 C256.114667,142.176 256.262666,142.206666 256.404,142.268 C256.545334,142.329334 256.669333,142.411999 256.776,142.516 C256.882667,142.620001 256.966666,142.742666 257.028,142.884 C257.089334,143.025334 257.12,143.175999 257.12,143.336 Z M262.464,145.712 C263.06667,145.712 263.611998,145.810666 264.1,146.008 C264.588002,146.205334 265.003998,146.485332 265.348,146.848 C265.692002,147.210668 265.957332,147.650664 266.144,148.168 C266.330668,148.685336 266.424,149.266663 266.424,149.912 C266.424,150.557337 266.330668,151.138664 266.144,151.656 C265.957332,152.173336 265.692002,152.614665 265.348,152.98 C265.003998,153.345335 264.588002,153.626666 264.1,153.824 C263.611998,154.021334 263.06667,154.12 262.464,154.12 C261.855997,154.12 261.308002,154.021334 260.82,153.824 C260.331998,153.626666 259.914668,153.345335 259.568,152.98 C259.221332,152.614665 258.954668,152.173336 258.768,151.656 C258.581332,151.138664 258.488,150.557337 258.488,149.912 C258.488,149.266663 258.581332,148.685336 258.768,148.168 C258.954668,147.650664 259.221332,147.210668 259.568,146.848 C259.914668,146.485332 260.331998,146.205334 260.82,146.008 C261.308002,145.810666 261.855997,145.712 262.464,145.712 Z M262.464,152.776 C263.200004,152.776 263.747998,152.529336 264.108,152.036 C264.468002,151.542664 264.648,150.837338 264.648,149.92 C264.648,149.002662 264.468002,148.294669 264.108,147.796 C263.747998,147.297331 263.200004,147.048 262.464,147.048 C261.71733,147.048 261.162668,147.297331 260.8,147.796 C260.437332,148.294669 260.256,149.002662 260.256,149.92 C260.256,150.837338 260.437332,151.542664 260.8,152.036 C261.162668,152.529336 261.71733,152.776 262.464,152.776 Z M269.68,146.92 C269.856001,146.738666 270.038666,146.574667 270.228,146.428 C270.417334,146.281333 270.618666,146.154667 270.832,146.048 C271.045334,145.941333 271.271999,145.858667 271.512,145.8 C271.752001,145.741333 272.013332,145.712 272.296,145.712 C272.744002,145.712 273.137332,145.786666 273.476,145.936 C273.814668,146.085334 274.099999,146.295999 274.332,146.568 C274.564001,146.840001 274.738666,147.166665 274.856,147.548 C274.973334,147.929335 275.032,148.349331 275.032,148.808 L275.032,154 L273.32,154 L273.32,148.808 C273.32,148.258664 273.193335,147.832002 272.94,147.528 C272.686665,147.223998 272.301336,147.072 271.784,147.072 C271.399998,147.072 271.044002,147.159999 270.716,147.336 C270.387998,147.512001 270.080001,147.751998 269.792,148.056 L269.792,154 L268.072,154 L268.072,145.84 L269.112,145.84 C269.346668,145.84 269.496,145.949332 269.56,146.168 L269.68,146.92 Z" id="Foundation" fill="#FFFFFF"></path>
                </g>
            </g>
        </g>
    </g>
</svg>