<?xml version="1.0" encoding="UTF-8"?>
<svg width="24px" height="45px" viewBox="0 0 24 45" version="1.1" xmlns="http://www.w3.org/2000/svg" xmlns:xlink="http://www.w3.org/1999/xlink">
    <!-- Generator: Sketch 51.1 (57501) - http://www.bohemiancoding.com/sketch -->
    <title>logo</title>
    <desc>Created with Sketch.</desc>
    <defs></defs>
    <g id="1366x768-large-display" stroke="none" stroke-width="1" fill="none" fill-rule="evenodd">
        <g id="other-page" transform="translate(-1318.000000, -120.000000)" fill="#212121">
            <g id="header" transform="translate(1318.000000, 24.000000)">
                <g id="logo" transform="translate(12.000000, 118.500000) rotate(90.000000) translate(-12.000000, -118.500000) translate(-10.500000, 106.500000)">
                    <path d="M1.60705918,9.56311199 C1.83385747,9.35894596 2.06570667,9.25686295 2.30260677,9.25686295 C2.53950687,9.25686295 2.75658189,9.35894596 2.95383183,9.56311199 L2.95383183,10.1146295 C3.6730011,9.14571408 4.89967321,8.61288058 6.63384816,8.51612903 C6.88531873,8.61772383 7.74193548,8.51612903 7.74193548,10.957015 C7.74193548,11.1021423 7.74193548,13.3105522 5.71648582,14.0809132 C5.68782892,14.1246106 5.68782892,14.1875161 5.71648582,14.2696298 C6.61361888,14.8121498 7.15549802,15.5774594 7.34212326,16.5655587 C7.43150935,16.9336081 7.40344575,17.5037731 7.25793244,18.2760539 C6.95978737,19.7602452 6.10906164,20.7564495 4.70575526,21.2646668 C4.33577546,21.2646668 4.02943949,21.2646668 3.78674736,21.2646668 L3.1556228,20.9257452 L2.4089639,20.5023409 C2.47368215,20.8193746 2.47368215,21.0734832 2.4089639,21.2646668 C2.31188652,21.5514423 2.23979559,21.5427704 2.0364749,21.6027074 C1.83315421,21.6626443 1.43302927,21.7355383 1.26224912,21.6027074 C1.09146897,21.4698764 1.11537915,21.4698764 1.09146897,21.2646668 C1.06755878,21.0594573 1.09146897,20.5023409 1.09146897,20.136984 C0.430984563,19.7699748 1.23720341e-17,19.3175778 0,18.9803325 C0,18.7555023 0,18.2669278 0,17.5146091 L1.40703125,17.5146091 L1.60705918,9.56311199 Z M5.99287104,10.8367886 C5.73064678,10.6697554 4.81212528,10.9386837 4.12399494,11.5370788 C3.83108336,11.7917934 3.02225747,12.4073455 2.92650411,13.4007573 C4.06654195,13.4007573 4.57361153,12.9028252 5.03703947,12.5696912 C6.0883638,11.8139493 5.99287104,10.8367886 5.99287104,10.8367886 Z M2.92965734,15.5590962 C2.80584465,15.6810539 2.80584465,18.358028 2.92965734,18.4799424 C3.11847829,18.6658684 3.16391144,18.6658684 3.41343256,18.7676794 C3.66295368,18.8694904 4.44630034,18.8389589 4.96649921,18.7676794 C5.34411269,18.4752274 5.58408771,17.9349966 5.68642428,17.1469871 C5.73918537,16.7669823 5.73918537,16.4443478 5.68642428,16.1790835 C5.68642428,15.5262947 4.88801709,15.4378733 4.38124682,15.4378733 C3.64953844,15.4378733 3.07825928,15.4127208 2.92965734,15.5590962 Z" id="Combined-Shape" fill-rule="nonzero"></path>
                    <path d="M8.40523629,9.07131901 C8.38451599,9.48891136 8.38451599,9.89822029 8.40523629,10.2992458 C8.41870116,10.5598481 8.39399797,10.4521151 8.39399797,10.7151973 C8.39399797,11.5216734 8.40523629,11.9982027 8.40523629,12.8843949 C8.40523629,13.1267901 8.24059931,13.1884164 8.21829643,13.5802035 C8.15063648,14.7687629 8.10227029,15.9865774 8.07319786,17.2336471 L7.92698422,18.1341798 C7.84430857,18.4067579 7.80089643,18.5668383 7.7967478,18.6144211 C7.72366471,19.4526502 7.72366471,20.2603748 7.7967478,20.5906327 C8.07319786,21.1491462 8.38253086,21.6774194 8.94376194,21.6774194 C9.5741069,21.6774194 10.4147746,21.1314884 11.4657649,20.0396264 L11.4657649,20.4974476 L11.5427292,20.8460593 L11.6624943,20.9123054 C12.1816984,21.0955334 12.6780184,21.0955334 13.1514543,20.9123054 C13.4296461,20.8046404 13.6814334,20.5873302 13.9068162,20.2603748 C14.0450099,19.6565499 13.683577,19.4135037 12.8225174,19.5312362 C12.8225174,18.70275 12.7580499,18.6833492 12.8225174,17.863043 C12.9295863,16.5006622 12.9459365,16.4145792 13.0416091,14.9577957 C13.1166482,13.8151948 13.1824384,12.6698207 13.2389798,11.5216734 L13.4140309,10.7151973 L13.4140309,8.82586729 C13.2973302,8.61937512 13.001887,8.51612903 12.5277013,8.51612903 C12.0535157,8.51612903 11.7251917,8.59729309 11.5427292,8.75962119 L11.5427292,11.4331151 L11.4657649,12.1514212 C11.5165701,13.1045368 11.5165701,13.9771726 11.4657649,14.7693288 C11.4544686,14.945462 11.3458937,15.4145335 11.2907567,15.8634036 C11.2583682,16.1270782 11.206203,16.0900421 11.1157056,16.3052456 C11.0528943,16.4546114 11.0608594,16.4813877 10.9841394,16.5925422 C10.8855304,16.7354101 10.799507,17.0061594 10.7650477,17.1006303 C10.7369106,17.1777686 10.6640796,17.369314 10.5465546,17.6752666 C10.4777706,17.7110365 10.4157146,17.7110365 10.3603865,17.6752666 C10.3065319,17.6404494 10.2728609,17.6225951 10.2728609,17.4983226 C10.2728609,16.3024205 10.3603865,15.9248965 10.3603865,15.0349174 C10.3603865,14.8093351 10.3579605,14.21711 10.4807928,13.8968656 C10.5465546,13.7254138 10.6117177,13.6065394 10.6117177,13.488125 C10.6117177,13.4091821 10.6117177,12.7241788 10.6117177,11.4331151 L10.5465546,10.8587808 L10.4807928,10.2992458 L10.3603865,9.7871046 L10.1636144,9.42251371 C10.0842045,9.34039161 10.0002136,9.27037646 9.91164179,9.21246828 C9.86724871,9.18344412 10.0046544,8.99026435 9.91164179,8.98067168 C9.26638856,8.91412476 8.76425339,8.94434054 8.40523629,9.07131901 Z" id="Path-10" fill-rule="nonzero"></path>
                    <path d="M14.2559888,8.65852599 C15.1535608,8.51747871 15.9806466,8.48121423 16.7372463,8.54973253 C17.8721459,8.65250999 18.9925635,9.0976004 19.0882265,10.1383117 C19.1975496,10.2410817 19.2094046,10.644972 19.2094046,10.8737044 C18.9657724,12.8210926 18.3690044,14.1234831 17.4191005,14.7808759 L17.4191005,14.9649873 L18.9925635,16.750705 C18.9914119,16.97598 19.0232995,17.1576255 19.0882265,17.2956415 C19.3972063,18.3548364 19.8193349,18.5513185 19.9783314,18.8461639 C20.0621079,19.126283 20.567729,19.8582546 19.0882265,20.4429212 C18.240506,20.4901197 17.3513342,19.554119 16.4207109,17.6349189 L16.4207109,16.4832951 C16.4546235,16.078398 16.4546235,15.8540319 16.4207109,15.8101967 C16.2495152,15.5889103 16.0320343,15.6594313 16.0320343,15.9252518 C16.0320343,17.5499895 16.2780725,20.195025 16.1988042,20.3138309 C16.0320343,20.6645883 15.6584101,20.9560546 15.3157259,20.8951241 C14.9230162,20.8252989 14.4629355,20.4796758 13.9354839,19.8582546 L13.9354839,19.6293426 C14.0096086,19.5001774 14.0722766,19.4355949 14.1234879,19.4355949 C14.3416413,19.4355949 14.0466709,16.6389144 14.1234879,14.6715035 C14.1599408,13.7378846 14.2326931,14.0632671 14.3500276,13.6335352 C14.4488168,13.2717244 14.4440664,13.5037758 14.5557352,13.088418 C14.6580836,12.7077279 14.5557352,11.3217313 14.5557352,10.644972 C14.4440664,10.4917785 14.4440664,10.644972 14.3500276,10.3639314 C14.3256612,10.0494152 14.459206,9.35443492 14.4201046,9.31037089 C14.3574121,9.23972155 14.3027068,9.16879806 14.2559888,9.0976004 L14.2559888,8.65852599 Z M16.2941202,10.5248373 C16.1274344,11.4248953 16.2209326,12.5213816 16.2941202,12.8567235 C16.3955084,12.951394 17.3709787,12.2785188 17.5535569,10.7145116 C17.4723669,10.2783682 17.1642822,10.2783682 16.7716172,10.2783682 C16.4669366,10.2783682 16.3857069,10.4115067 16.2941202,10.5248373 Z" id="Combined-Shape" fill-rule="nonzero"></path>
                    <path d="M21.0567334,7.75177383 L21.162127,6.19430114 L21.4562885,5.10171549 L21.5602413,3.43589347 C21.5602413,2.60293728 21.5602413,2.1055495 21.5602413,1.94373015 C21.5602413,1.6484697 22.2681202,-3.46944695e-18 23.2544899,2.77555756e-17 C23.4790118,-3.46944695e-17 23.4790118,2.77555756e-17 23.8942152,2.77555756e-17 C24.6086684,1.1589037e-15 25.0005235,0.208159969 25.0697804,0.624479908 C25.0005235,2.85746046 24.9658951,4.43665647 24.9658951,5.36206796 C24.9658951,5.84725489 24.432865,7.6223097 23.0122711,10.764879 C23.0122711,11.0656524 22.9603059,11.5494592 22.8563756,12.2162992 L23.0122711,12.8062101 L22.8563756,17.733928 L22.6838639,20.3020025 L22.5622817,21.569128 C22.5622817,21.8695851 22.660313,22.083371 22.8563756,22.2104857 C23.9862349,22.2104857 25.0812631,22.2104857 26.1414603,22.2104857 C27.2944653,22.2104857 27.8709677,22.4882131 27.8709677,23.0436679 C27.8709677,23.6364128 27.5078871,23.9327853 26.7817259,23.9327853 L24.6725972,23.9327853 C23.5213786,24.0224049 22.2566407,24.0224049 20.8783834,23.9327853 C20.2790292,23.7672208 20.0392115,23.3689797 20.1589303,22.7380621 C20.1394006,22.3883234 20.1394006,22.0503863 20.1589303,21.7242509 C20.2085905,20.8949537 20.3168398,20.2368113 20.3168398,20.1010613 C20.3168398,19.9653113 20.468597,19.3439136 20.5867773,18.5233859 C20.7493688,17.3945103 20.7251082,17.2672408 20.8294643,16.0628605 C20.8868206,15.4009074 20.8868206,14.7473668 20.8294643,14.1022384 C20.8294643,13.6432639 20.8294643,13.1664442 20.8294643,12.6717795 C20.8294643,12.3664602 20.9764752,12.2005848 20.9675584,12 C20.9081084,10.6626652 20.9378334,9.24658985 21.0567334,7.75177383 Z M22.9984325,1.54331964 C22.9409257,1.74280878 22.8891973,2.03395035 22.8432472,2.41674437 C22.8825471,2.8390443 22.9084113,3.28640273 22.9208398,3.75881968 C22.9409933,4.524868 22.9208398,5.36609186 22.9208398,5.36609186 C22.9208398,5.36609186 22.9875084,6.13436001 22.9208398,6.3090522 C22.8691114,6.4445965 22.8195821,6.67045325 22.7722519,6.98662247 C22.8858522,6.7731002 22.9612457,6.6086655 22.9984325,6.49331836 C23.0672067,6.27999198 23.0908039,6.04443795 23.1315067,5.82385834 C23.2620479,5.11642012 23.1994742,5.06763846 23.3112253,4.14222459 C23.370512,3.65127018 23.3695194,3.67285427 23.4030681,3.07214831 C23.4237583,2.70168037 23.4268525,2.67988801 23.4030681,2.20240338 C23.3876159,1.89219056 23.4331149,1.72443845 23.4030681,1.54331964 C23.3398974,1.16253317 23.3632063,1.12147926 23.2166332,1.12147926 C23.1066495,1.12147926 23.0988654,1.19492079 22.9984325,1.54331964 Z" id="Combined-Shape" fill-rule="nonzero"></path>
                    <path d="M25.6004369,10.2853208 C25.5613161,10.3441714 25.5890866,10.4596796 25.6004369,10.6192516 C25.6226041,10.9308957 25.6462697,10.8878873 25.6674719,11.227753 C25.6985286,11.7255834 25.7626766,11.7734963 25.7049548,12.2946437 C25.6630021,12.6734178 25.6452978,12.6211691 25.6004369,12.8991556 C25.5456233,13.2388161 25.6004369,13.5696735 25.6004369,13.5696735 C25.6004369,13.5696735 25.4285094,14.0795852 25.4070538,14.4774981 C25.3453525,15.6218058 25.3338085,16.7287806 25.3724218,17.7984224 C25.0144309,18.0164405 24.8354355,18.196889 24.8354355,18.3397678 C24.7537796,18.5665475 24.7537796,19.0491614 24.8354355,19.2897729 C25.3724218,20.5925202 25.6421646,20.5428158 26.3886424,20.8904417 C26.6175024,20.9947109 26.8174764,20.4611547 26.9885645,19.2897729 L27.5520864,18.4333361 C27.5773047,16.797436 27.6172281,15.1762152 27.6718568,13.5696735 C27.6795911,13.3422209 27.6712606,13.2444696 27.7314411,13.1588059 C27.8776312,12.950712 27.9112049,12.0830625 27.8214429,11.7307738 C27.7112555,11.5116859 27.5520864,10.1881575 26.2387904,10.0645161 C25.9383185,10.0645161 25.6674719,10.1844779 25.6004369,10.2853208 Z" id="Path-4" fill-rule="nonzero"></path>
                    <path d="M25.8187491,7.34435546 C26.0123839,7.14813831 26.0405866,7.11273653 26.3118106,7.04699535 C26.6539859,6.96405647 26.7251209,6.92078427 27.0455477,7.04699535 C27.4333871,7.19975922 27.5485356,7.24058574 27.7283431,7.60494525 C27.9340316,8.02174951 27.9023274,8.14898576 27.7283431,8.55976287 C27.5609296,8.95502644 27.4279872,8.98599514 27.0455477,9.2170266 C26.8839841,9.314627 26.5669067,9.31488206 26.4000567,9.2170266 C25.8903863,8.91811123 25.9543061,8.86704369 25.6925068,8.42348493 C25.5370642,8.16012305 25.5310532,8.09826173 25.5655728,7.80318533 C25.5941743,7.558697 25.639265,7.5262333 25.8187491,7.34435546 Z" id="Path-5" fill-rule="nonzero"></path>
                    <path d="M29.2136587,9.81245475 C29.0465582,10.0811113 29.0269291,10.188372 28.9813221,10.6077462 C28.9508242,10.888187 29.0614489,10.9099155 29.0614489,11.2120848 C29.0614489,12.3537155 29.0614489,12.7988671 28.9813221,13.4586678 C28.8498827,13.6416638 28.9300095,13.8127734 28.8625337,14.1877948 C28.7696084,14.7042606 28.7637125,14.7212984 28.7406467,15.2783207 C28.6550264,17.3459815 28.6451613,18.9918881 28.6451613,19.437161 C28.6451613,19.7314762 28.6451613,20.6515265 29.4908133,20.9032258 C30.4638106,20.9032258 31.1500968,20.2719322 31.5496719,19.0093448 C31.5496719,19.3709553 31.5998443,19.6643222 31.700189,19.8894455 C31.8368502,20.2951035 32.3871318,20.1277674 33.0790566,20.177828 C33.9563494,20.177828 33.9563494,19.8439384 33.9563494,19.6534881 C33.9086845,19.3682484 33.7885909,19.3015227 33.3613907,19.0790183 C33.4245464,18.6251337 33.4548759,18.4975025 33.5144346,17.9001523 C33.5767926,17.2747255 33.4976821,17.2142187 33.6052243,16.6334641 C33.6754435,16.2542176 33.8046881,16.1472931 33.8827238,15.5137025 C33.9563494,14.3170188 33.9929157,14.3495315 33.9563494,13.2736383 C33.9458492,12.964692 33.8827238,12.7024166 33.8827238,12.3969743 C33.8827238,11.3694706 34.0645161,10.9113181 34.0645161,10.3909952 C34.0204269,10.000718 33.441696,9.31266355 32.9149203,9.31266355 C32.5722029,9.31266355 32.0421484,9.64181441 31.9276399,10.2985845 C31.7739971,12.6610645 32.0406621,12.6610645 31.8368502,14.7327988 C31.7739971,15.3716967 31.602805,15.2021984 31.3943099,15.7198487 C31.1863572,16.5755649 31.1739527,16.4561078 30.9242598,17.1411094 C30.7926984,17.502032 30.8017056,17.5932526 30.6318013,17.811697 C30.5409168,17.9285465 30.4172462,18.0136757 30.4026824,17.811697 C30.3343971,16.8646785 30.1844246,16.6334641 30.4026824,15.5137025 C30.4371585,15.0288213 30.4996603,15.0535419 30.5608797,14.596483 C30.6064455,14.2562922 30.7199062,14.2695912 30.7390333,13.9192031 C30.8344955,12.1704334 30.8609799,10.8620419 30.8609799,10.3909952 C30.6318013,9.81245475 30.5327586,9.46654406 30.0113122,9.31266355 C29.7090981,9.22347921 29.4679802,9.40356836 29.2136587,9.81245475 Z" id="Path-6" fill-rule="nonzero"></path>
                    <path d="M36.4035103,9.57435655 C36.328416,9.70588871 36.2231214,10.0548249 36.2595053,10.3665069 C36.2951239,10.6716341 36.3963555,10.6531709 36.4035103,10.9585128 C36.4157108,11.4791953 36.3714894,11.5095915 36.2982157,12.0185558 C36.2152735,12.5946787 36.1955791,12.5528553 36.0910784,13.1286872 C35.9673607,13.8104103 35.997044,13.8275173 35.9470734,14.5336657 C35.8530858,15.861827 35.9168376,15.8757067 35.8031619,17.1973068 C35.7620252,17.6755645 35.6712146,17.6562079 35.6374486,18.1333812 C35.6047214,18.5958735 35.6047214,19.0644565 35.6374486,19.5391302 C35.6374486,20.2429328 35.9382491,20.6165858 36.5398501,20.6600894 C37.5723136,20.6600894 37.342066,20.2498486 37.7339553,19.411779 C37.8798507,17.9964493 37.9825881,18.2864351 38.12912,17.1365483 C38.1881102,16.6736315 38.2130668,16.2025338 38.2039897,15.7232551 C38.4806613,15.6012329 38.7917009,16.0111255 39.1371083,16.9529329 C39.7706302,18.4432485 39.9414164,18.8393843 41.0632242,20.0080217 C41.896602,20.7671742 42.080779,20.6600894 42.8683464,20.9032258 C43.5885424,20.8344693 43.626029,20.6600894 44.0288452,20.1221119 C44.2131358,19.4812328 44.0867728,18.9841072 44.0867728,18.2565588 C44.0288452,17.6000467 43.8790148,17.4036169 43.5253192,17.4741358 C42.9009799,17.535459 42.9814487,18.0240996 42.2665293,18.333967 C41.6120628,18.5613892 41.1902571,17.9087934 40.5213554,16.9529329 C40.0951717,16.3439163 40.2065733,15.7232551 39.9958898,15.3134945 C39.8494032,14.9892456 39.7474846,15.1477331 39.6267626,14.8366396 C39.5879145,14.5414143 39.5749571,14.2548617 39.6726748,14.023267 C39.9958898,12.8162079 40.1292165,12.9969274 40.6301675,12.0185558 C41.1311186,11.0401842 41.2991359,10.9105848 41.498236,10.4766963 C41.5656539,10.4766963 41.5886897,10.2549442 41.6853901,10.2450568 C41.8654106,10.2266502 42.1450782,10.4327977 42.4929121,10.2450568 C42.7663928,10.0974476 42.8683464,9.8385858 42.9280192,9.57435655 C42.8882374,8.97300881 42.5444316,8.63155699 41.896602,8.55000109 C41.6399826,8.52741972 41.4192475,8.51612903 41.2343968,8.51612903 C39.6267626,8.64630062 39.5356553,9.52838785 39.3092917,10.0025421 C39.082928,10.4766963 39.0233881,11.0075714 38.7479088,12.0185558 C38.5974725,12.570644 38.6650009,12.7050998 38.4574604,13.1286872 C38.3930414,13.2601655 38.2997232,13.2074774 38.2039897,13.1286872 C38.1098853,13.0512378 38.0587081,12.9722544 38.0777846,12.8162079 C38.1131142,12.5272097 38.3128018,12.2385978 38.3128018,12.2385978 C38.3128018,12.2385978 38.4267008,11.9125097 38.4574604,11.5678976 C38.4990301,11.1021742 38.4574604,11.0929122 38.4574604,10.6179269 C38.4574604,10.4314918 38.4909812,10.4225306 38.4574604,10.2450568 C38.3642459,9.75153917 38.4452897,9.58424865 38.2039897,9.27594406 C37.9203543,8.91354838 37.7339553,8.90365628 37.4075896,8.90365628 C36.5398501,9.18627837 36.7227446,9.01519841 36.4035103,9.57435655 Z" id="Path-13" fill-rule="nonzero"></path>
                    <path d="M30.3778228,23.2093233 L30.3778228,22.3439572 L30.2706305,22.3295345 C30.2473452,22.3254137 30.228677,22.3183741 30.2146255,22.3084154 C30.200574,22.2984568 30.1935484,22.2842059 30.1935484,22.2656622 L30.1935484,22.1616123 L30.3778228,22.1616123 L30.3778228,22.0833172 C30.3778228,22.0228787 30.3884617,21.9686221 30.4097396,21.920546 C30.4310176,21.8724699 30.461529,21.8316058 30.5012747,21.7979525 C30.5410203,21.7642992 30.5893969,21.7385445 30.6464058,21.7206877 C30.7034148,21.7028308 30.7676492,21.6939025 30.8391111,21.6939025 C30.8961201,21.6939025 30.9491135,21.700427 30.998093,21.7134763 L30.992071,21.8412208 C30.991268,21.850836 30.9880563,21.8585624 30.9824357,21.8644002 C30.9768151,21.870238 30.969388,21.8747022 30.9601542,21.8777928 C30.9509203,21.8808834 30.9402815,21.8829438 30.9282373,21.883974 C30.9161932,21.8850042 30.9033463,21.8855193 30.8896963,21.8855193 C30.8543668,21.8855193 30.8228518,21.8887815 30.7951502,21.8953062 C30.7674487,21.9018308 30.743963,21.9131628 30.7246924,21.9293027 C30.7054217,21.9454425 30.6907683,21.9667331 30.6807315,21.9931749 C30.6706947,22.0196168 30.6656764,22.0524111 30.6656764,22.0915588 L30.6656764,22.1616123 L30.9872533,22.1616123 L30.9872533,22.342927 L30.6753116,22.342927 L30.6753116,23.2093233 L30.3778228,23.2093233 Z M31.6689484,22.1358573 C31.7604838,22.1358573 31.8437879,22.148563 31.918863,22.1739746 C31.9939382,22.1993863 32.0581726,22.2354429 32.1115683,22.2821454 C32.164964,22.3288479 32.2061142,22.3858516 32.2350202,22.4531582 C32.2639261,22.5204648 32.2783789,22.5956685 32.2783789,22.6787715 C32.2783789,22.7625613 32.2639261,22.8381084 32.2350202,22.905415 C32.2061142,22.9727216 32.164964,23.0300687 32.1115683,23.077458 C32.0581726,23.1248473 31.9939382,23.1612473 31.918863,23.1866589 C31.8437879,23.2120706 31.7604838,23.2247763 31.6689484,23.2247763 C31.5766099,23.2247763 31.4927037,23.2120706 31.4172271,23.1866589 C31.3417504,23.1612473 31.2773152,23.1248473 31.2239195,23.077458 C31.1705239,23.0300687 31.1291729,22.9727216 31.0998655,22.905415 C31.0705581,22.8381084 31.0559046,22.7625613 31.0559046,22.6787715 C31.0559046,22.5956685 31.0705581,22.5204648 31.0998655,22.4531582 C31.1291729,22.3858516 31.1705239,22.3288479 31.2239195,22.2821454 C31.2773152,22.2354429 31.3417504,22.1993863 31.4172271,22.1739746 C31.4927037,22.148563 31.5766099,22.1358573 31.6689484,22.1358573 Z M31.6689484,23.0290387 C31.771725,23.0290387 31.8478027,22.9995067 31.8971837,22.9404417 C31.9465647,22.8813767 31.9712548,22.794841 31.9712548,22.6808319 C31.9712548,22.5668228 31.9465647,22.4799436 31.8971837,22.4201919 C31.8478027,22.3604401 31.771725,22.3305647 31.6689484,22.3305647 C31.5645658,22.3305647 31.4872837,22.3606118 31.4370998,22.420707 C31.3869159,22.4808021 31.3618243,22.5675096 31.3618243,22.6808319 C31.3618243,22.7941542 31.3869159,22.8805182 31.4370998,22.9399266 C31.4872837,22.999335 31.5645658,23.0290387 31.6689484,23.0290387 Z M33.5707088,22.1523405 L33.5707088,23.2093233 L33.3888432,23.2093233 C33.349499,23.2093233 33.3246081,23.1938705 33.3141699,23.1629644 L33.2936949,23.0784882 C33.2431095,23.1224435 33.1873058,23.157985 33.1262822,23.1851136 C33.0652585,23.2122423 32.9933962,23.2258065 32.9106931,23.2258065 C32.8432459,23.2258065 32.7836283,23.2160197 32.7318385,23.1964458 C32.6800487,23.176872 32.6364897,23.1492286 32.6011602,23.1135149 C32.5658308,23.0778012 32.5391333,23.0353918 32.5210671,22.9862855 C32.5030009,22.9371792 32.4939679,22.8830943 32.4939679,22.8240294 L32.4939679,22.1523405 L32.7914567,22.1523405 L32.7914567,22.8240294 C32.7914567,22.8885887 32.8089205,22.9385528 32.8438485,22.9739231 C32.8787765,23.0092934 32.9311677,23.0269783 33.0010237,23.0269783 C33.0524121,23.0269783 33.1005879,23.0171915 33.1455527,22.9976177 C33.1905175,22.9780438 33.2330728,22.9510872 33.27322,22.9167472 L33.27322,22.1523405 L33.5707088,22.1523405 Z M34.1428027,22.2821454 C34.1676939,22.2608545 34.1939899,22.2411093 34.2216914,22.222909 C34.2493929,22.2047088 34.2786999,22.189256 34.3096132,22.1765501 C34.3405265,22.1638443 34.3736474,22.1538858 34.4089769,22.1466744 C34.4443063,22.139463 34.482847,22.1358573 34.5246,22.1358573 C34.5920472,22.1358573 34.6518656,22.1456441 34.7040568,22.165218 C34.7562481,22.1847918 34.7998071,22.2122635 34.8347351,22.2476338 C34.8696631,22.2830041 34.8961599,22.3252417 34.9142261,22.3743481 C34.9322923,22.4234544 34.9413253,22.4775392 34.9413253,22.5366042 L34.9413253,23.2093233 L34.6438364,23.2093233 L34.6438364,22.5366042 C34.6438364,22.4720448 34.6265734,22.4220807 34.5920469,22.3867105 C34.5575204,22.3513402 34.5049284,22.3336553 34.4342694,22.3336553 C34.3828811,22.3336553 34.3347052,22.3436137 34.2897405,22.363531 C34.2447757,22.3834483 34.2022203,22.4105765 34.1620732,22.4449166 L34.1620732,23.2093233 L33.8645844,23.2093233 L33.8645844,22.1523405 L34.04645,22.1523405 C34.0849913,22.1523405 34.1102836,22.1677933 34.1223277,22.1986994 L34.1428027,22.2821454 Z M35.9987956,22.4222523 C35.965072,22.3872254 35.9283379,22.3625009 35.8885922,22.348078 C35.8488466,22.3336552 35.8060905,22.3264439 35.7603228,22.3264439 C35.715358,22.3264439 35.67481,22.3336552 35.6386776,22.348078 C35.6025451,22.3625009 35.5716323,22.3843065 35.5459381,22.4134956 C35.520244,22.4426847 35.5005722,22.4797714 35.4869221,22.5247569 C35.4732721,22.5697425 35.4664472,22.6227971 35.4664472,22.6839225 C35.4664472,22.7457346 35.4722684,22.7981025 35.4839111,22.8410276 C35.4955538,22.8839527 35.5122146,22.9189791 35.5338941,22.9461078 C35.5555735,22.9732365 35.5820702,22.99281 35.613385,23.0048291 C35.6446998,23.0168481 35.6796272,23.0228575 35.7181685,23.0228575 C35.7799951,23.0228575 35.8325871,23.0118688 35.875946,22.9898912 C35.9193049,22.9679135 35.9602543,22.9366645 35.9987956,22.8961432 L35.9987956,22.4222523 Z M36.2962844,21.6784496 L36.2962844,23.2093233 L36.1144188,23.2093233 C36.0750746,23.2093233 36.0501837,23.1938705 36.0397455,23.1629644 L36.0144529,23.0609748 C35.9646704,23.1097378 35.9074616,23.1492283 35.8428247,23.1794476 C35.7781878,23.2096668 35.7029131,23.2247763 35.6169982,23.2247763 C35.549551,23.2247763 35.4877254,23.2127574 35.4315194,23.1887193 C35.3753134,23.1646813 35.3269368,23.1298266 35.2863882,23.0841543 C35.2458396,23.0384819 35.2145253,22.9819933 35.1924443,22.9146868 C35.1703634,22.8473802 35.1593231,22.7704595 35.1593231,22.6839225 C35.1593231,22.6056271 35.1717685,22.5328272 35.1966598,22.4655206 C35.221551,22.398214 35.2572814,22.3398367 35.3038521,22.290387 C35.3504228,22.2409372 35.4062265,22.2023052 35.4712648,22.1744897 C35.5363032,22.1466743 35.6093699,22.1327667 35.6904671,22.1327667 C35.7595202,22.1327667 35.8185356,22.1420384 35.8675151,22.1605821 C35.9164946,22.1791257 35.9602543,22.2041936 35.9987956,22.2357865 L35.9987956,21.6784496 L36.2962844,21.6784496 Z M37.2429492,22.7580967 C37.1570343,22.7615307 37.0847706,22.7678835 37.0261557,22.7771554 C36.9675409,22.7864272 36.9205695,22.7982743 36.88524,22.8126972 C36.8499105,22.82712 36.8246182,22.8439464 36.8093623,22.8631769 C36.7941064,22.8824073 36.7864785,22.9033545 36.7864785,22.9260189 C36.7864785,22.9706611 36.8019349,23.0025969 36.8328482,23.0218273 C36.8637615,23.0410578 36.9041088,23.0506728 36.9538912,23.0506728 C37.0149149,23.0506728 37.0677076,23.0412295 37.1122709,23.0223424 C37.1568342,23.0034554 37.2003932,22.9747818 37.2429492,22.9363209 L37.2429492,22.7580967 Z M36.5612542,22.2996587 C36.7033751,22.1883968 36.8743993,22.1327667 37.0743321,22.1327667 C37.1465969,22.1327667 37.2112328,22.1428969 37.2682418,22.1631576 C37.3252507,22.1834182 37.3734265,22.2115767 37.4127707,22.2476338 C37.4521149,22.2836909 37.4820241,22.326787 37.5024991,22.3769236 C37.5229742,22.4270601 37.5332116,22.4820034 37.5332116,22.5417552 L37.5332116,23.2093233 L37.3983178,23.2093233 C37.3702148,23.2093233 37.3485357,23.2057176 37.3332798,23.1985062 C37.3180239,23.1912948 37.3059799,23.1767005 37.2971476,23.1547228 L37.2706506,23.0784882 C37.2393358,23.1025263 37.2088244,23.1236451 37.1791156,23.1418453 C37.1494067,23.1600456 37.1184938,23.1753267 37.0863761,23.1876891 C37.0542584,23.2000516 37.0199331,23.209495 36.9833992,23.2160196 C36.9468653,23.2225442 36.9065181,23.2258065 36.8623562,23.2258065 C36.8101649,23.2258065 36.7619891,23.219797 36.7178272,23.207778 C36.6736654,23.195759 36.6355262,23.1777307 36.6034085,23.1536926 C36.5712908,23.1296545 36.5463999,23.0997791 36.5287352,23.0640654 C36.5110704,23.0283517 36.5022382,22.9868008 36.5022382,22.9394115 C36.5022382,22.9126262 36.5074572,22.8860131 36.5178955,22.8595712 C36.5283338,22.8331293 36.545396,22.8078897 36.5690828,22.7838517 C36.5927697,22.7598136 36.6234818,22.7371495 36.6612201,22.7158586 C36.6989584,22.6945677 36.7453276,22.6760244 36.8003292,22.6602279 C36.8553308,22.6444315 36.9193645,22.6315541 36.9924323,22.6215955 C37.0655001,22.6116369 37.1490049,22.6056275 37.2429492,22.6035671 L37.2429492,22.5417552 C37.2429492,22.4710146 37.2252847,22.4186467 37.1899552,22.3846501 C37.1546258,22.3506534 37.1036397,22.3336553 37.0369954,22.3336553 C36.9888188,22.3336553 36.948873,22.3384628 36.9171568,22.348078 C36.8854406,22.3576933 36.8575387,22.3685102 36.8334504,22.3805293 C36.8093621,22.3925483 36.7874823,22.4033653 36.7678102,22.4129805 C36.7481381,22.4225957 36.7262582,22.4274033 36.7021699,22.4274033 C36.6812934,22.4274033 36.663629,22.4227674 36.649176,22.4134956 C36.634723,22.4042238 36.6230805,22.3934068 36.6142481,22.3810444 L36.5612542,22.2996587 Z M39.0423349,23.2093233 L38.7448461,23.2093233 L38.7448461,22.342927 L38.1715479,22.342927 L38.1715479,22.915717 C38.1715479,22.9486834 38.1809823,22.9744381 38.1998515,22.9929818 C38.2187206,23.0115254 38.2446151,23.0207971 38.2775358,23.0207971 C38.2960035,23.0207971 38.3114599,23.0189084 38.3239055,23.015131 C38.3363511,23.0113536 38.3471907,23.0074046 38.3564245,23.0032838 C38.3656584,22.9991629 38.3738884,22.9952139 38.3811149,22.9914365 C38.3883414,22.9876591 38.3955677,22.9857704 38.4027942,22.9857704 C38.4116266,22.9857704 38.418853,22.9876591 38.4244736,22.9914365 C38.4300942,22.9952139 38.4361162,23.0008799 38.4425397,23.0084347 L38.5316659,23.1320585 C38.488307,23.1629645 38.4385253,23.1863155 38.3823193,23.2021119 C38.3261133,23.2179083 38.2679008,23.2258065 38.2076801,23.2258065 C38.1000858,23.2258065 38.0175846,23.1998801 37.9601742,23.1480265 C37.9027638,23.096173 37.8740591,23.024575 37.8740591,22.9332303 L37.8740591,22.342927 L37.7475962,22.342927 C37.7315373,22.342927 37.7178875,22.3384629 37.7066463,22.3295345 C37.6954051,22.3206061 37.6897846,22.3072136 37.6897846,22.2893568 L37.6897846,22.1883974 L37.888512,22.1595519 L37.9511412,21.8721267 C37.9551559,21.8583907 37.9627837,21.8477454 37.9740249,21.8401906 C37.9852661,21.8326358 37.9997189,21.8288584 38.0173836,21.8288584 L38.1715479,21.8288584 L38.1715479,22.1616123 L39.0423349,22.1616123 L39.0423349,23.2093233 Z M39.0941245,21.8401906 C39.0941245,21.8621682 39.0889054,21.8829437 39.0784672,21.9025175 C39.0680289,21.9220914 39.0541784,21.9390895 39.0369151,21.9535123 C39.0196518,21.9679352 38.9991771,21.9794389 38.9754903,21.988024 C38.9518035,21.996609 38.9267119,22.0009014 38.9002148,22.0009014 C38.8745206,22.0009014 38.8504327,21.996609 38.8279503,21.988024 C38.8054679,21.9794389 38.7857961,21.9679352 38.7689343,21.9535123 C38.7520725,21.9390895 38.7386234,21.9220914 38.7285866,21.9025175 C38.7185498,21.8829437 38.7135315,21.8621682 38.7135315,21.8401906 C38.7135315,21.8175261 38.7185498,21.7964073 38.7285866,21.7768334 C38.7386234,21.7572596 38.7520725,21.7400898 38.7689343,21.7253235 C38.7857961,21.7105573 38.8054679,21.6988818 38.8279503,21.6902968 C38.8504327,21.6817118 38.8745206,21.6774194 38.9002148,21.6774194 C38.9267119,21.6774194 38.9518035,21.6817118 38.9754903,21.6902968 C38.9991771,21.6988818 39.0196518,21.7105573 39.0369151,21.7253235 C39.0541784,21.7400898 39.0680289,21.7572596 39.0784672,21.7768334 C39.0889054,21.7964073 39.0941245,21.8175261 39.0941245,21.8401906 Z M39.8926471,22.1358573 C39.9841826,22.1358573 40.0674866,22.148563 40.1425618,22.1739746 C40.2176369,22.1993863 40.2818714,22.2354429 40.3352671,22.2821454 C40.3886628,22.3288479 40.429813,22.3858516 40.4587189,22.4531582 C40.4876249,22.5204648 40.5020776,22.5956685 40.5020776,22.6787715 C40.5020776,22.7625613 40.4876249,22.8381084 40.4587189,22.905415 C40.429813,22.9727216 40.3886628,23.0300687 40.3352671,23.077458 C40.2818714,23.1248473 40.2176369,23.1612473 40.1425618,23.1866589 C40.0674866,23.2120706 39.9841826,23.2247763 39.8926471,23.2247763 C39.8003087,23.2247763 39.7164024,23.2120706 39.6409258,23.1866589 C39.5654492,23.1612473 39.501014,23.1248473 39.4476183,23.077458 C39.3942226,23.0300687 39.3528717,22.9727216 39.3235642,22.905415 C39.2942568,22.8381084 39.2796033,22.7625613 39.2796033,22.6787715 C39.2796033,22.5956685 39.2942568,22.5204648 39.3235642,22.4531582 C39.3528717,22.3858516 39.3942226,22.3288479 39.4476183,22.2821454 C39.501014,22.2354429 39.5654492,22.1993863 39.6409258,22.1739746 C39.7164024,22.148563 39.8003087,22.1358573 39.8926471,22.1358573 Z M39.8926471,23.0290387 C39.9954238,23.0290387 40.0715014,22.9995067 40.1208824,22.9404417 C40.1702634,22.8813767 40.1949535,22.794841 40.1949535,22.6808319 C40.1949535,22.5668228 40.1702634,22.4799436 40.1208824,22.4201919 C40.0715014,22.3604401 39.9954238,22.3305647 39.8926471,22.3305647 C39.7882645,22.3305647 39.7109824,22.3606118 39.6607985,22.420707 C39.6106146,22.4808021 39.585523,22.5675096 39.585523,22.6808319 C39.585523,22.7941542 39.6106146,22.8805182 39.6607985,22.9399266 C39.7109824,22.999335 39.7882645,23.0290387 39.8926471,23.0290387 Z M41.007929,22.2821454 C41.0328202,22.2608545 41.0591162,22.2411093 41.0868178,22.222909 C41.1145193,22.2047088 41.1438263,22.189256 41.1747395,22.1765501 C41.2056528,22.1638443 41.2387737,22.1538858 41.2741032,22.1466744 C41.3094327,22.139463 41.3479734,22.1358573 41.3897264,22.1358573 C41.4571736,22.1358573 41.5169919,22.1456441 41.5691832,22.165218 C41.6213745,22.1847918 41.6649335,22.2122635 41.6998615,22.2476338 C41.7347895,22.2830041 41.7612862,22.3252417 41.7793524,22.3743481 C41.7974186,22.4234544 41.8064516,22.4775392 41.8064516,22.5366042 L41.8064516,23.2093233 L41.5089628,23.2093233 L41.5089628,22.5366042 C41.5089628,22.4720448 41.4916998,22.4220807 41.4571733,22.3867105 C41.4226467,22.3513402 41.3700548,22.3336553 41.2993958,22.3336553 C41.2480075,22.3336553 41.1998316,22.3436137 41.1548668,22.363531 C41.109902,22.3834483 41.0673467,22.4105765 41.0271996,22.4449166 L41.0271996,23.2093233 L40.7297107,23.2093233 L40.7297107,22.1523405 L40.9115764,22.1523405 C40.9501176,22.1523405 40.9754099,22.1677933 40.9874541,22.1986994 L41.007929,22.2821454 Z" id="foundation"></path>
                </g>
            </g>
        </g>
    </g>
</svg>