<svg width="101" height="54" viewBox="0 0 101 54" fill="none" xmlns="http://www.w3.org/2000/svg">
<g id="&#208;&#145;&#208;&#187;&#208;&#190;&#208;&#186;: &#208;&#187;&#208;&#190;&#208;&#179;&#208;&#190;&#209;&#130;&#208;&#184;&#208;&#191;">
<g id="Group 2">
<path id="Combined Shape" fill-rule="evenodd" clip-rule="evenodd" d="M1.01154 21.8165V20.655C1.01154 20.655 1.23901 18.7019 3.11285 18.4949H6.66241H10.4925H13.9059C13.9059 18.4949 14.4431 18.4854 14.79 18.4949C20.206 18.6433 24.6245 23.0055 24.5345 27.4983C24.5345 32.4671 20.0592 34.7924 20.0592 34.7924C20.0592 34.7924 26.674 36.6236 26.674 43.4766C26.674 51.2056 20.0592 53.9538 15.2748 53.9538H2.99658C2.99658 53.9538 1.01154 53.5143 1.01154 51.5982V35.3016V21.8165ZM5.69647 22.8125V33.0845H14.8441C16.3008 33.0845 20.0621 32.1059 20.0621 27.9485C20.0621 23.8125 16.3859 22.8125 14.8441 22.8125H5.69647ZM5.71375 49.6341V37.4359H15.3197C17.0117 37.4359 22.1459 37.7492 22.1459 43.535C22.1459 48.7234 17.1799 49.6341 15.3197 49.6341H5.71375Z" fill="#EEEEEE"/>
<path id="Combined Shape_2" fill-rule="evenodd" clip-rule="evenodd" d="M0.996948 29.0074V33.1426H5.72705V23.1247H13.5524C23.6245 21.9041 23.9332 13.5448 23.9332 11.4593C23.4257 1.7114 13.9474 0 13.9474 0H6.65906H3.59094C1.28333 0 0.996948 2.18958 0.996948 2.18958V4.40909V8.17441V11.4593V15.6319V19.8415V24.058V29.0074ZM5.71533 18.5038V4.35757H13.2526C14.6417 4.35757 19.4359 5.79822 19.4359 11.5851C19.4359 17.4748 14.478 18.5038 13.2526 18.5038H5.71533Z" fill="#011627"/>
</g>
<g id="Group">
<path id="seo" fill-rule="evenodd" clip-rule="evenodd" d="M40.0192 9.6995C40.5103 9.92706 40.9061 10.2431 41.2068 10.6477C41.2869 10.7791 41.327 10.8955 41.327 10.9966C41.327 11.1685 41.2469 11.3051 41.0865 11.4062C41.0164 11.4568 40.9212 11.4821 40.8009 11.4821C40.5905 11.4821 40.4151 11.4062 40.2748 11.2545C39.7837 10.6881 39.1123 10.4049 38.2605 10.4049C37.7093 10.4049 37.2684 10.5187 36.9377 10.7463C36.607 10.9738 36.4416 11.2595 36.4416 11.6034C36.4416 11.9675 36.5969 12.2583 36.9076 12.4757C37.2183 12.6932 37.7694 12.8676 38.5611 12.9991C39.6334 13.1812 40.4001 13.477 40.861 13.8866C41.322 14.2962 41.5525 14.8044 41.5525 15.4113C41.5525 15.8765 41.4147 16.2912 41.1391 16.6553C40.8635 17.0194 40.4802 17.3025 39.9892 17.5048C39.4981 17.7071 38.9419 17.8082 38.3206 17.8082C37.6993 17.8082 37.103 17.702 36.5318 17.4896C35.9606 17.2773 35.4996 16.9789 35.1489 16.5946C35.0486 16.4732 34.9985 16.3569 34.9985 16.2457C34.9985 16.0737 35.0787 15.922 35.239 15.7905C35.3593 15.6995 35.4846 15.654 35.6148 15.654C35.7852 15.654 35.9305 15.7248 36.0508 15.8664C36.2913 16.1496 36.6095 16.367 37.0053 16.5187C37.4012 16.6704 37.8396 16.7463 38.3206 16.7463C39.0221 16.7463 39.5482 16.6249 39.899 16.3822C40.2497 16.1395 40.4301 15.8209 40.4401 15.4264C40.4401 15.0623 40.2648 14.7589 39.914 14.5162C39.5633 14.2735 39.0071 14.0914 38.2455 13.97C37.2634 13.8082 36.5293 13.5276 36.0433 13.1281C35.5572 12.7286 35.3142 12.2456 35.3142 11.6793C35.3142 10.941 35.5973 10.3695 36.1635 9.96498C36.7297 9.56043 37.4387 9.35815 38.2906 9.35815C38.952 9.35815 39.5282 9.47193 40.0192 9.6995ZM49.0232 9.88154C49.5944 10.2305 50.0379 10.7134 50.3535 11.3303C50.6692 11.9473 50.827 12.6502 50.827 13.4391C50.827 13.6009 50.7769 13.7298 50.6767 13.8259C50.5765 13.922 50.4462 13.97 50.2859 13.97H44.2129C44.2931 14.7994 44.6138 15.4719 45.175 15.9878C45.7362 16.5036 46.4377 16.7615 47.2795 16.7615C47.6403 16.7615 48.0035 16.6982 48.3693 16.5718C48.7351 16.4454 49.0282 16.2861 49.2487 16.0939C49.379 15.9928 49.5142 15.9422 49.6545 15.9422C49.7648 15.9422 49.875 15.9827 49.9853 16.0636C50.1155 16.185 50.1807 16.3215 50.1807 16.4732C50.1807 16.6047 50.1256 16.721 50.0153 16.8221C49.6846 17.1053 49.2637 17.3405 48.7526 17.5276C48.2415 17.7147 47.7505 17.8082 47.2795 17.8082C46.4778 17.8082 45.7612 17.6287 45.1299 17.2697C44.4985 16.9106 44.005 16.41 43.6492 15.7678C43.2935 15.1255 43.1156 14.3999 43.1156 13.5908C43.1156 12.7716 43.2835 12.0408 43.6192 11.3986C43.9549 10.7564 44.4209 10.2558 45.0172 9.89671C45.6134 9.53767 46.2924 9.35815 47.054 9.35815C47.7956 9.35815 48.452 9.53262 49.0232 9.88154ZM45.16 11.1188C44.6589 11.5942 44.3533 12.2212 44.243 13H49.7448C49.6646 12.2212 49.384 11.5942 48.903 11.1188C48.422 10.6435 47.8056 10.4058 47.054 10.4058C46.2924 10.4058 45.6611 10.6435 45.16 11.1188ZM58.3581 9.9043C58.9895 10.2684 59.4881 10.7741 59.8538 11.4214C60.2196 12.0687 60.4025 12.7918 60.4025 13.5908C60.4025 14.3898 60.2221 15.1104 59.8614 15.7526C59.5006 16.3948 59.002 16.898 58.3657 17.2621C57.7293 17.6262 57.0153 17.8082 56.2236 17.8082C55.4319 17.8082 54.7179 17.6262 54.0815 17.2621C53.4452 16.898 52.9466 16.3948 52.5858 15.7526C52.2251 15.1104 52.0447 14.3898 52.0447 13.5908C52.0447 12.7918 52.2251 12.0687 52.5858 11.4214C52.9466 10.7741 53.4452 10.2684 54.0815 9.9043C54.7179 9.5402 55.4319 9.35815 56.2236 9.35815C57.0153 9.35815 57.7268 9.5402 58.3581 9.9043ZM54.6678 10.8306C54.2018 11.1037 53.836 11.4804 53.5705 11.9608C53.3049 12.4413 53.1721 12.9849 53.1721 13.5917C53.1721 14.1884 53.3049 14.727 53.5705 15.2074C53.836 15.6878 54.2018 16.0645 54.6678 16.3376C55.1338 16.6107 55.6524 16.7472 56.2236 16.7472C56.8049 16.7472 57.326 16.6107 57.787 16.3376C58.2479 16.0645 58.6087 15.6878 58.8693 15.2074C59.1298 14.727 59.2601 14.1884 59.2601 13.5917C59.2601 12.9849 59.1298 12.4413 58.8693 11.9608C58.6087 11.4804 58.2479 11.1037 57.787 10.8306C57.326 10.5576 56.8049 10.421 56.2236 10.421C55.6524 10.421 55.1338 10.5576 54.6678 10.8306Z" fill="#EEEEEE"/>
<path id="design" fill-rule="evenodd" clip-rule="evenodd" d="M43.3714 24.0574V27.6225C43.3714 28.4114 43.1885 29.1295 42.8227 29.7768C42.4569 30.4241 41.9559 30.9323 41.3195 31.3014C40.6831 31.6706 39.9741 31.8552 39.1925 31.8552C38.4108 31.8552 37.7018 31.6706 37.0654 31.3014C36.4291 30.9323 35.928 30.4241 35.5622 29.7768C35.1964 29.1295 35.0135 28.4114 35.0135 27.6225C35.0135 26.8337 35.1914 26.1181 35.5472 25.4759C35.9029 24.8337 36.389 24.328 37.0053 23.9588C37.6216 23.5897 38.3106 23.4051 39.0722 23.4051C39.7236 23.4051 40.3199 23.5442 40.861 23.8223C41.4022 24.1004 41.8481 24.4822 42.1989 24.9677V20.5227C42.1989 20.3507 42.254 20.2091 42.3642 20.0979C42.4745 19.9866 42.6148 19.931 42.7851 19.931C42.9555 19.931 43.0933 19.9866 43.1985 20.0979C43.3037 20.2091 43.3563 20.3507 43.3563 20.5227V23.9209C43.3664 23.9512 43.3714 23.9967 43.3714 24.0574ZM40.7412 30.3761C41.2022 30.0979 41.5654 29.7187 41.831 29.2383C42.0966 28.7578 42.2293 28.2193 42.2293 27.6226C42.2293 27.4506 42.2243 27.3242 42.2143 27.2433C42.2043 27.2231 42.1993 27.1978 42.1993 27.1675C42.0991 26.3786 41.7709 25.7313 41.2147 25.2256C40.6585 24.7199 39.9846 24.4671 39.1929 24.4671C38.6216 24.4671 38.103 24.6036 37.637 24.8767C37.1711 25.1498 36.8053 25.5265 36.5397 26.0069C36.2741 26.4873 36.1414 27.0259 36.1414 27.6226C36.1414 28.2193 36.2741 28.7578 36.5397 29.2383C36.8053 29.7187 37.1711 30.0979 37.637 30.3761C38.103 30.6542 38.6216 30.7933 39.1929 30.7933C39.7641 30.7933 40.2802 30.6542 40.7412 30.3761ZM51.5486 23.9285C52.1198 24.2774 52.5633 24.7604 52.8789 25.3773C53.1946 25.9943 53.3524 26.6972 53.3524 27.486C53.3524 27.6479 53.3023 27.7768 53.2021 27.8729C53.1019 27.969 52.9716 28.017 52.8113 28.017H46.7383C46.8185 28.8463 47.1392 29.5189 47.7004 30.0347C48.2616 30.5505 48.9631 30.8084 49.8049 30.8084C50.1656 30.8084 50.5289 30.7452 50.8947 30.6188C51.2605 30.4924 51.5536 30.3331 51.7741 30.1409C51.9044 30.0398 52.0396 29.9892 52.1799 29.9892C52.2902 29.9892 52.4004 30.0297 52.5106 30.1106C52.6409 30.2319 52.7061 30.3685 52.7061 30.5202C52.7061 30.6517 52.6509 30.768 52.5407 30.8691C52.21 31.1523 51.7891 31.3874 51.278 31.5745C50.7669 31.7616 50.2759 31.8552 49.8049 31.8552C49.0032 31.8552 48.2866 31.6757 47.6553 31.3166C47.0239 30.9576 46.5304 30.457 46.1746 29.8147C45.8189 29.1725 45.641 28.4469 45.641 27.6377C45.641 26.8185 45.8088 26.0878 46.1446 25.4456C46.4803 24.8034 46.9463 24.3027 47.5425 23.9437C48.1388 23.5846 48.8178 23.4051 49.5794 23.4051C50.321 23.4051 50.9774 23.5796 51.5486 23.9285ZM47.6854 25.1649C47.1843 25.6403 46.8787 26.2673 46.7684 27.0461H52.2702C52.19 26.2673 51.9094 25.6403 51.4284 25.1649C50.9473 24.6896 50.331 24.4519 49.5794 24.4519C48.8178 24.4519 48.1865 24.6896 47.6854 25.1649ZM59.8764 23.7465C60.3675 23.974 60.7633 24.2901 61.064 24.6946C61.1441 24.8261 61.1842 24.9424 61.1842 25.0436C61.1842 25.2155 61.104 25.352 60.9437 25.4532C60.8735 25.5037 60.7783 25.529 60.6581 25.529C60.4476 25.529 60.2723 25.4532 60.132 25.3015C59.6409 24.7351 58.9695 24.4519 58.1177 24.4519C57.5665 24.4519 57.1256 24.5657 56.7948 24.7932C56.4641 25.0208 56.2988 25.3065 56.2988 25.6504C56.2988 26.0145 56.4541 26.3053 56.7648 26.5227C57.0754 26.7401 57.6266 26.9146 58.4183 27.0461C59.4906 27.2281 60.2572 27.524 60.7182 27.9336C61.1792 28.3432 61.4097 28.8514 61.4097 29.4582C61.4097 29.9235 61.2719 30.3381 60.9963 30.7022C60.7207 31.0663 60.3374 31.3495 59.8464 31.5518C59.3553 31.7541 58.7991 31.8552 58.1778 31.8552C57.5565 31.8552 56.9602 31.749 56.389 31.5366C55.8178 31.3242 55.3568 31.0259 55.006 30.6415C54.9058 30.5202 54.8557 30.4039 54.8557 30.2926C54.8557 30.1207 54.9359 29.969 55.0962 29.8375C55.2165 29.7465 55.3417 29.701 55.472 29.701C55.6424 29.701 55.7877 29.7718 55.908 29.9134C56.1485 30.1965 56.4666 30.414 56.8625 30.5657C57.2583 30.7174 57.6968 30.7933 58.1778 30.7933C58.8793 30.7933 59.4054 30.6719 59.7562 30.4292C60.1069 30.1864 60.2873 29.8678 60.2973 29.4734C60.2973 29.1093 60.1219 28.8059 59.7712 28.5632C59.4204 28.3204 58.8643 28.1384 58.1026 28.017C57.1205 27.8552 56.3865 27.5745 55.9004 27.175C55.4144 26.7755 55.1714 26.2926 55.1714 25.7262C55.1714 24.9879 55.4545 24.4165 56.0207 24.0119C56.5869 23.6074 57.2959 23.4051 58.1477 23.4051C58.8091 23.4051 59.3854 23.5189 59.8764 23.7465ZM63.8148 23.6478C63.9251 23.5366 64.0655 23.4809 64.2359 23.4809C64.4063 23.4809 64.5442 23.5366 64.6494 23.6478C64.7547 23.7591 64.8073 23.9006 64.8073 24.0726V31.1876C64.8073 31.3596 64.7547 31.5012 64.6494 31.6124C64.5442 31.7237 64.4063 31.7793 64.2359 31.7793C64.0655 31.7793 63.9251 31.7237 63.8148 31.6124C63.7046 31.5012 63.6494 31.3596 63.6494 31.1876V24.0726C63.6494 23.9006 63.7046 23.7591 63.8148 23.6478ZM64.8074 20.4775C64.9679 20.6292 65.0481 20.8264 65.0481 21.0691C65.0481 21.3017 64.9679 21.499 64.8074 21.6608C64.647 21.8226 64.4516 21.9035 64.221 21.9035C63.9904 21.9035 63.7974 21.8226 63.642 21.6608C63.4866 21.499 63.4089 21.3017 63.4089 21.0691C63.4089 20.8264 63.4891 20.6292 63.6495 20.4775C63.8099 20.3258 64.0054 20.2499 64.236 20.2499C64.4566 20.2499 64.647 20.3258 64.8074 20.4775ZM73.6459 23.9437C74.2772 24.3027 74.7733 24.8033 75.1341 25.4456C75.4948 26.0878 75.6752 26.8185 75.6752 27.6377V30.7326C75.6752 31.5417 75.4973 32.2749 75.1416 32.9323C74.7858 33.5897 74.2923 34.108 73.6609 34.4873C73.0296 34.8666 72.3181 35.0562 71.5264 35.0562C70.7547 35.0562 70.0683 34.9096 69.467 34.6163C68.8657 34.323 68.3596 33.9134 67.9487 33.3874C67.8585 33.2863 67.8134 33.17 67.8134 33.0385C67.8134 32.8868 67.8836 32.7553 68.0239 32.6441C68.1241 32.5733 68.2343 32.5379 68.3546 32.5379C68.4448 32.5379 68.535 32.5606 68.6252 32.6061C68.7154 32.6517 68.7855 32.7098 68.8356 32.7806C69.1363 33.1649 69.5171 33.4633 69.9781 33.6757C70.439 33.8881 70.9602 33.9943 71.5414 33.9943C72.1026 33.9943 72.6112 33.8552 73.0671 33.5771C73.5231 33.2989 73.8814 32.9096 74.1419 32.4089C74.4025 31.9083 74.5328 31.3343 74.5328 30.6871V30.0044C74.2321 30.5809 73.8062 31.0335 73.255 31.3622C72.7039 31.6909 72.0775 31.8552 71.376 31.8552C70.5944 31.8552 69.8954 31.6757 69.2791 31.3166C68.6628 30.9576 68.1817 30.457 67.836 29.8147C67.4902 29.1725 67.3174 28.4469 67.3174 27.6377C67.3174 26.8185 67.4978 26.0878 67.8585 25.4456C68.2193 24.8033 68.7179 24.3027 69.3542 23.9437C69.9906 23.5846 70.7046 23.4051 71.4963 23.4051C72.298 23.4051 73.0145 23.5846 73.6459 23.9437ZM73.0595 30.3912C73.5205 30.1232 73.8813 29.749 74.1419 29.2686C74.4024 28.7882 74.5327 28.2446 74.5327 27.6377C74.5327 27.0309 74.4024 26.4873 74.1419 26.0069C73.8813 25.5265 73.5205 25.1498 73.0595 24.8767C72.5986 24.6036 72.0775 24.4671 71.4962 24.4671C70.9049 24.4671 70.3788 24.6036 69.9178 24.8767C69.4569 25.1498 69.0961 25.5265 68.8355 26.0069C68.575 26.4873 68.4447 27.0309 68.4447 27.6377C68.4447 28.2446 68.575 28.7882 68.8355 29.2686C69.0961 29.749 69.4569 30.1232 69.9178 30.3912C70.3788 30.6592 70.9049 30.7933 71.4962 30.7933C72.0775 30.7933 72.5986 30.6592 73.0595 30.3912ZM83.7397 23.845C84.3059 24.1485 84.7494 24.5909 85.07 25.1725C85.3907 25.754 85.5511 26.4493 85.5511 27.2585V31.2028C85.5511 31.3647 85.4959 31.5012 85.3857 31.6124C85.2755 31.7237 85.1402 31.7793 84.9798 31.7793C84.8095 31.7793 84.6692 31.7237 84.5589 31.6124C84.4487 31.5012 84.3936 31.3647 84.3936 31.2028V27.2585C84.3936 26.3583 84.1456 25.6731 83.6495 25.2028C83.1535 24.7325 82.5046 24.4974 81.7029 24.4974C81.2118 24.4974 80.7684 24.5935 80.3725 24.7856C79.9767 24.9778 79.6635 25.2433 79.433 25.5821C79.2025 25.9209 79.0873 26.2976 79.0873 26.7123V31.2028C79.0873 31.3748 79.0347 31.5138 78.9294 31.62C78.8242 31.7262 78.6864 31.7793 78.5161 31.7793C78.3457 31.7793 78.2054 31.7262 78.0952 31.62C77.9849 31.5138 77.9298 31.3748 77.9298 31.2028V24.0726C77.9298 23.9007 77.9849 23.7591 78.0952 23.6478C78.2054 23.5366 78.3457 23.4809 78.5161 23.4809C78.6864 23.4809 78.8242 23.5366 78.9294 23.6478C79.0347 23.7591 79.0873 23.9007 79.0873 24.0726V24.5884C79.418 24.2142 79.8188 23.9209 80.2898 23.7085C80.7608 23.4961 81.2719 23.3899 81.8231 23.3899C82.5346 23.3899 83.1735 23.5416 83.7397 23.845Z" fill="#EEEEEE"/>
<path id="frontend" fill-rule="evenodd" clip-rule="evenodd" d="M37.5763 35.7074C37.2406 36.1524 37.0728 36.7441 37.0728 37.4824V37.8313H38.8766C39.037 37.8313 39.1647 37.8793 39.2599 37.9754C39.3551 38.0715 39.4027 38.1954 39.4027 38.3471C39.4027 38.4887 39.3551 38.6075 39.2599 38.7036C39.1647 38.7997 39.037 38.8477 38.8766 38.8477H37.0728V45.2346C37.0728 45.4166 37.0202 45.5608 36.9149 45.667C36.8097 45.7732 36.6619 45.8263 36.4715 45.8263C36.3111 45.8263 36.1784 45.7732 36.0731 45.667C35.9679 45.5608 35.9153 45.4166 35.9153 45.2346V38.8477H34.9532C34.7929 38.8477 34.6651 38.7997 34.5699 38.7036C34.4747 38.6075 34.4271 38.4887 34.4271 38.3471C34.4271 38.1954 34.4747 38.0715 34.5699 37.9754C34.6651 37.8793 34.7929 37.8313 34.9532 37.8313H35.9153V37.543C35.9153 36.4609 36.1909 35.5961 36.7421 34.9489C37.2932 34.3016 38.0699 33.9779 39.072 33.9779C39.2424 33.9779 39.3827 34.0285 39.4929 34.1296C39.6032 34.2308 39.6583 34.3572 39.6583 34.5089C39.6583 34.6606 39.6032 34.787 39.4929 34.8882C39.3827 34.9893 39.2424 35.0399 39.072 35.0399C38.4106 35.0399 37.9121 35.2624 37.5763 35.7074ZM45.6636 37.6037C45.9091 37.715 46.0319 37.8718 46.0319 38.074C46.0319 38.1347 46.0269 38.1802 46.0169 38.2106C45.9768 38.3522 45.9141 38.4482 45.829 38.4988C45.7438 38.5494 45.626 38.5747 45.4757 38.5747C45.3855 38.5747 45.2302 38.5645 45.0097 38.5443C44.9295 38.5342 44.8093 38.5291 44.6489 38.5291C43.8973 38.5291 43.2835 38.7314 42.8075 39.136C42.3315 39.5405 42.0935 40.0664 42.0935 40.7137V45.2498C42.0935 45.4318 42.0434 45.5734 41.9432 45.6745C41.843 45.7757 41.7027 45.8263 41.5223 45.8263C41.3419 45.8263 41.2016 45.7757 41.1014 45.6745C41.0012 45.5734 40.951 45.4318 40.951 45.2498V38.1044C40.951 37.9223 41.0012 37.7807 41.1014 37.6796C41.2016 37.5785 41.3419 37.5279 41.5223 37.5279C41.7027 37.5279 41.843 37.5785 41.9432 37.6796C42.0434 37.7807 42.0935 37.9223 42.0935 38.1044V38.7719C42.3841 38.3471 42.7549 38.0184 43.2059 37.7858C43.6568 37.5532 44.1429 37.4369 44.664 37.4369C45.0849 37.4369 45.4181 37.4925 45.6636 37.6037ZM53.1121 37.9982C53.7434 38.3623 54.242 38.868 54.6077 39.5153C54.9735 40.1626 55.1564 40.8857 55.1564 41.6847C55.1564 42.4837 54.976 43.2043 54.6153 43.8465C54.2545 44.4887 53.7559 44.9919 53.1196 45.356C52.4832 45.7201 51.7692 45.9021 50.9775 45.9021C50.1858 45.9021 49.4718 45.7201 48.8354 45.356C48.1991 44.9919 47.7005 44.4887 47.3397 43.8465C46.979 43.2043 46.7986 42.4837 46.7986 41.6847C46.7986 40.8857 46.979 40.1626 47.3397 39.5153C47.7005 38.868 48.1991 38.3623 48.8354 37.9982C49.4718 37.6341 50.1858 37.4521 50.9775 37.4521C51.7692 37.4521 52.4807 37.6341 53.1121 37.9982ZM49.4216 38.9236C48.9556 39.1967 48.5898 39.5734 48.3243 40.0538C48.0587 40.5342 47.9259 41.0779 47.9259 41.6847C47.9259 42.2814 48.0587 42.82 48.3243 43.3004C48.5898 43.7808 48.9556 44.1575 49.4216 44.4306C49.8876 44.7037 50.4062 44.8402 50.9774 44.8402C51.5587 44.8402 52.0798 44.7037 52.5407 44.4306C53.0017 44.1575 53.3625 43.7808 53.6231 43.3004C53.8836 42.82 54.0139 42.2814 54.0139 41.6847C54.0139 41.0779 53.8836 40.5342 53.6231 40.0538C53.3625 39.5734 53.0017 39.1967 52.5407 38.9236C52.0798 38.6505 51.5587 38.514 50.9774 38.514C50.4062 38.514 49.8876 38.6505 49.4216 38.9236ZM63.221 37.892C63.7872 38.1954 64.2307 38.6379 64.5514 39.2194C64.872 39.801 65.0324 40.4963 65.0324 41.3054V45.2498C65.0324 45.4116 64.9773 45.5481 64.867 45.6594C64.7568 45.7706 64.6215 45.8263 64.4612 45.8263C64.2908 45.8263 64.1505 45.7706 64.0403 45.6594C63.93 45.5481 63.8749 45.4116 63.8749 45.2498V41.3054C63.8749 40.4053 63.6269 39.7201 63.1308 39.2498C62.6348 38.7795 61.9859 38.5443 61.1842 38.5443C60.6931 38.5443 60.2497 38.6404 59.8538 38.8326C59.458 39.0247 59.1448 39.2902 58.9143 39.629C58.6838 39.9678 58.5686 40.3446 58.5686 40.7592V45.2498C58.5686 45.4217 58.516 45.5608 58.4108 45.667C58.3055 45.7732 58.1677 45.8263 57.9974 45.8263C57.827 45.8263 57.6867 45.7732 57.5765 45.667C57.4662 45.5608 57.4111 45.4217 57.4111 45.2498V38.1195C57.4111 37.9476 57.4662 37.806 57.5765 37.6948C57.6867 37.5835 57.827 37.5279 57.9974 37.5279C58.1677 37.5279 58.3055 37.5835 58.4108 37.6948C58.516 37.806 58.5686 37.9476 58.5686 38.1195V38.6353C58.8993 38.2611 59.3002 37.9678 59.7712 37.7554C60.2422 37.5431 60.7533 37.4369 61.3044 37.4369C62.016 37.4369 62.6548 37.5886 63.221 37.892ZM71.6013 44.8258C71.7015 44.937 71.7516 45.0786 71.7516 45.2505C71.7516 45.4124 71.6915 45.5489 71.5713 45.6601C71.451 45.7714 71.3007 45.827 71.1203 45.827H70.8046C70.2735 45.827 69.7975 45.6981 69.3766 45.4402C68.9557 45.1823 68.6275 44.8333 68.392 44.3934C68.1565 43.9534 68.0387 43.4553 68.0387 42.8991V38.8485H67.0616C66.9013 38.8485 66.7735 38.8005 66.6783 38.7044C66.5831 38.6083 66.5355 38.4895 66.5355 38.3479C66.5355 38.1962 66.5831 38.0723 66.6783 37.9762C66.7735 37.8801 66.9013 37.8321 67.0616 37.8321H68.0387V35.4806C68.0387 35.3087 68.0913 35.1671 68.1966 35.0558C68.3018 34.9446 68.4396 34.8889 68.6099 34.8889C68.7803 34.8889 68.9206 34.9446 69.0308 35.0558C69.1411 35.1671 69.1962 35.3087 69.1962 35.4806V37.8321H70.8948C71.0552 37.8321 71.1829 37.8801 71.2781 37.9762C71.3733 38.0723 71.4209 38.1962 71.4209 38.3479C71.4209 38.4895 71.3733 38.6083 71.2781 38.7044C71.1829 38.8005 71.0552 38.8485 70.8948 38.8485H69.1962V42.8991C69.1962 43.4149 69.3465 43.8371 69.6472 44.1658C69.9478 44.4945 70.3336 44.6589 70.8046 44.6589H71.2105C71.3708 44.6589 71.5011 44.7145 71.6013 44.8258ZM79.1023 37.9754C79.6735 38.3244 80.117 38.8073 80.4326 39.4242C80.7483 40.0412 80.9062 40.7441 80.9062 41.533C80.9062 41.6948 80.856 41.8237 80.7558 41.9198C80.6556 42.0159 80.5253 42.0639 80.365 42.0639H74.292C74.3722 42.8933 74.6929 43.5658 75.2541 44.0817C75.8153 44.5975 76.5168 44.8554 77.3586 44.8554C77.7194 44.8554 78.0826 44.7921 78.4484 44.6657C78.8142 44.5393 79.1073 44.38 79.3278 44.1878C79.4581 44.0867 79.5933 44.0361 79.7337 44.0361C79.8439 44.0361 79.9541 44.0766 80.0644 44.1575C80.1946 44.2789 80.2598 44.4154 80.2598 44.5671C80.2598 44.6986 80.2047 44.8149 80.0944 44.916C79.7637 45.1992 79.3428 45.4344 78.8317 45.6215C78.3206 45.8086 77.8296 45.9021 77.3586 45.9021C76.5569 45.9021 75.8403 45.7226 75.209 45.3636C74.5776 45.0045 74.0841 44.5039 73.7283 43.8617C73.3726 43.2194 73.1947 42.4938 73.1947 41.6847C73.1947 40.8655 73.3626 40.1347 73.6983 39.4925C74.034 38.8503 74.5 38.3497 75.0963 37.9906C75.6925 37.6316 76.3715 37.4521 77.1331 37.4521C77.8747 37.4521 78.5311 37.6265 79.1023 37.9754ZM75.2392 39.2118C74.7382 39.6872 74.4325 40.3142 74.3223 41.093H79.824C79.7438 40.3142 79.4632 39.6872 78.9822 39.2118C78.5012 38.7365 77.8849 38.4988 77.1333 38.4988C76.3716 38.4988 75.7403 38.7365 75.2392 39.2118ZM88.6702 37.892C89.2365 38.1954 89.6799 38.6379 90.0006 39.2194C90.3213 39.801 90.4816 40.4963 90.4816 41.3054V45.2498C90.4816 45.4116 90.4265 45.5481 90.3163 45.6594C90.206 45.7706 90.0707 45.8263 89.9104 45.8263C89.74 45.8263 89.5997 45.7706 89.4895 45.6594C89.3793 45.5481 89.3241 45.4116 89.3241 45.2498V41.3054C89.3241 40.4053 89.0761 39.7201 88.5801 39.2498C88.084 38.7795 87.4351 38.5443 86.6334 38.5443C86.1423 38.5443 85.6989 38.6404 85.3031 38.8326C84.9072 39.0247 84.5941 39.2902 84.3636 39.629C84.1331 39.9678 84.0178 40.3446 84.0178 40.7592V45.2498C84.0178 45.4217 83.9652 45.5608 83.86 45.667C83.7548 45.7732 83.617 45.8263 83.4466 45.8263C83.2762 45.8263 83.1359 45.7732 83.0257 45.667C82.9155 45.5608 82.8604 45.4217 82.8604 45.2498V38.1195C82.8604 37.9476 82.9155 37.806 83.0257 37.6948C83.1359 37.5835 83.2762 37.5279 83.4466 37.5279C83.617 37.5279 83.7548 37.5835 83.86 37.6948C83.9652 37.806 84.0178 37.9476 84.0178 38.1195V38.6353C84.3485 38.2611 84.7494 37.9678 85.2204 37.7554C85.6914 37.5431 86.2025 37.4369 86.7537 37.4369C87.4652 37.4369 88.104 37.5886 88.6702 37.892ZM100.959 38.1044V41.6695C100.959 42.4584 100.776 43.1764 100.41 43.8237C100.045 44.471 99.5435 44.9792 98.9072 45.3484C98.2708 45.7175 97.5618 45.9021 96.7801 45.9021C95.9984 45.9021 95.2894 45.7175 94.6531 45.3484C94.0167 44.9792 93.5156 44.471 93.1499 43.8237C92.7841 43.1764 92.6012 42.4584 92.6012 41.6695C92.6012 40.8806 92.7791 40.1651 93.1348 39.5228C93.4906 38.8806 93.9766 38.3749 94.5929 38.0058C95.2093 37.6366 95.8982 37.452 96.6599 37.452C97.3112 37.452 97.9075 37.5911 98.4487 37.8692C98.9898 38.1474 99.4358 38.5291 99.7865 39.0146V34.5696C99.7865 34.3977 99.8416 34.2561 99.9519 34.1448C100.062 34.0336 100.202 33.9779 100.373 33.9779C100.543 33.9779 100.681 34.0336 100.786 34.1448C100.891 34.2561 100.944 34.3977 100.944 34.5696V37.9678C100.954 37.9982 100.959 38.0437 100.959 38.1044ZM98.3284 44.423C98.7894 44.1449 99.1527 43.7656 99.4183 43.2852C99.6838 42.8048 99.8166 42.2662 99.8166 41.6695C99.8166 41.4976 99.8116 41.3712 99.8016 41.2902C99.7916 41.27 99.7866 41.2447 99.7866 41.2144C99.6863 40.4255 99.3581 39.7782 98.802 39.2725C98.2458 38.7668 97.5718 38.514 96.7801 38.514C96.2089 38.514 95.6903 38.6505 95.2243 38.9236C94.7583 39.1967 94.3926 39.5734 94.127 40.0538C93.8614 40.5342 93.7286 41.0728 93.7286 41.6695C93.7286 42.2662 93.8614 42.8048 94.127 43.2852C94.3926 43.7656 94.7583 44.1449 95.2243 44.423C95.6903 44.7011 96.2089 44.8402 96.7801 44.8402C97.3514 44.8402 97.8675 44.7011 98.3284 44.423Z" fill="#EEEEEE"/>
</g>
</g>
</svg>
